<?xml version="1.0" encoding="UTF-8"?>
<svg xmlns="http://www.w3.org/2000/svg" viewBox="0 0 1331.74 894.32">
  <defs>
    <style>
      .cls-1 {
        fill: #2b1500;
      }

      .cls-1, .cls-2, .cls-3, .cls-4, .cls-5, .cls-6, .cls-7, .cls-8, .cls-9, .cls-10, .cls-11, .cls-12, .cls-13, .cls-14, .cls-15, .cls-16, .cls-17, .cls-18, .cls-19, .cls-20, .cls-21, .cls-22, .cls-23, .cls-24, .cls-25, .cls-26, .cls-27 {
        stroke-width: 0px;
      }

      .cls-2 {
        fill: #f9f0af;
      }

      .cls-3 {
        fill: #703d00;
      }

      .cls-28 {
        isolation: isolate;
      }

      .cls-4 {
        fill: #2ac494;
      }

      .cls-5 {
        mix-blend-mode: multiply;
        opacity: .18;
      }

      .cls-5, .cls-16 {
        fill: #1f0b38;
      }

      .cls-7 {
        fill: #ffdd71;
      }

      .cls-8 {
        fill: #26a87d;
      }

      .cls-9 {
        fill: #ffc3a3;
      }

      .cls-10 {
        fill: #fff3a9;
      }

      .cls-11 {
        fill: #f99662;
      }

      .cls-29 {
        opacity: .99;
      }

      .cls-12 {
        fill: #ffdf43;
      }

      .cls-13 {
        fill: #fff;
      }

      .cls-14 {
        fill: #0098c1;
      }

      .cls-15 {
        fill: #ff8150;
      }

      .cls-17 {
        fill: #ffb792;
      }

      .cls-18 {
        fill: #a56950;
      }

      .cls-19 {
        fill: #ee8914;
      }

      .cls-20 {
        fill: #895b49;
      }

      .cls-21 {
        fill: #ffaf3b;
      }

      .cls-22 {
        fill: #fffadc;
      }

      .cls-23 {
        fill: #9cb9bd;
      }

      .cls-24 {
        fill: #005134;
      }

      .cls-25 {
        fill: #ffd91f;
      }

      .cls-26 {
        fill: #ff9769;
      }

      .cls-27 {
        fill: #0cf;
      }
    </style>
  </defs>
  <g class="cls-28">
    <g id="Camada_2" data-name="Camada 2">
      <g id="Layer_1" data-name="Layer 1" class="cls-29">
        <g>
          <g>
            <path class="cls-27" d="M30.77,871.19S-51.74,540.07,104.56,344.84c100.09-125.02,263.41-87.88,263.41-87.88,0,0,222.97-378.08,441.01-217.03,293.12,216.51,286.56,1.09,440.9,126.67,184.17,149.85,0,725.14,0,725.14L30.77,871.19Z"/>
            <path class="cls-14" d="M1233.34,295.99c-128.66-176.67-225.4,64-413.48-93.31-269.34-225.27-289.03,365.43-379.9,348.51-129.52-24.12-144.87-151.61-294.82-44.9-37.48,26.67-87.6,95.01-101.5,174.94-14.58,83.89,3.43,181.68,3.43,181.68l1191.95,26.25c32.6-92.05,96.51-452.85-5.68-593.17Z"/>
            <path class="cls-8" d="M0,862.9h1287.59v5.49c0,14.31-11.62,25.92-25.92,25.92H25.92c-14.31,0-25.92-11.62-25.92-25.92v-5.49h0Z"/>
          </g>
          <g>
            <g>
              <path class="cls-4" d="M474.07,91.96h149.15c14.21,0,25.75,11.54,25.75,25.75v51.49c0,14.21-11.54,25.75-25.75,25.75h-149.15c-14.21,0-25.75-11.54-25.75-25.75v-51.49c0-14.21,11.54-25.75,25.75-25.75Z" transform="translate(1097.28 286.9) rotate(180)"/>
              <polygon class="cls-4" points="592.66 183 531.62 237.12 544.96 181.3 592.66 183"/>
            </g>
            <g>
              <path class="cls-2" d="M1109.36,342.56l-3.31-15.06s-10.83,6.87-17.15,16.69c-6.32,9.82-9.33,36.01-11.13,36.99-1.81.98-21.8-29.82-25.3-34.68-4.32-6.01-5.94-12.9-8.65-18.14-2.71-5.24-12.24-7.02-15.85-6.37-3.61.65,4.96,15.97,4.96,15.97,0,0,21.67,37.64,28.89,58.27,7.22,20.62,29.79,30.44,33.4,27.5,3.61-2.95,14.14-81.18,14.14-81.18Z"/>
              <path class="cls-2" d="M1043.57,331.25s-.9-3.96-3.33-4.77c-2.43-.81-6.67-.09-6.94,0-.27.09-4.95-2.43-4.95-2.43l3.87,7.21s7.57,8.92,10.09,5.59c2.52-3.33,1.26-5.59,1.26-5.59Z"/>
              <path class="cls-2" d="M1027,324.38s-2.73,13.9-2.04,16.82c.69,2.92,2.44,1.36,2.76.72,1.34-2.61,2.28-11.53,2.28-11.53l-3-6.01Z"/>
              <path class="cls-2" d="M1032.88,335.94s-1.3,8.62-2.64,9.64c-.87.66-1.98.27-2.34-1.47s1.74-12.37,1.74-12.37l3.24,4.2Z"/>
              <path class="cls-16" d="M1040.85,360.41l4.53-2.21-19.26-39.52h0c-2.5,1.22-3.55,4.24-2.32,6.75l17.05,34.98Z"/>
              <path class="cls-6" d="M1089.25,280.64c-2.72-12.36-5.38-24.79,1.79-38.37,5.8-10.99,15.83-17.31,27.43-18.69,32.88-3.9,25.85,26.79,71.8,33.44,14.28,2.06,27.54,4.05,39.47,11.15,21.53,12.82,29.65,33.39,15.38,66.9-34.96,82.06-120.76,12.4-131.36-3.76-7.88-12.02-22.75-42.72-24.5-50.67Z"/>
              <path class="cls-22" d="M1220.74,798.97s2.34,23.77,8.36,28.14c6.02,4.36,14.04,20.51,10.03,29.24-1.25,2.73-3.76,4.31-6.62,5.18-8.46,2.6-17.45-1.78-21.05-9.86-2.01-4.51-3.78-10.54-4.13-18.13-.9-19.31-6.92-29.13-6.92-29.13l20.33-5.44Z"/>
              <path class="cls-22" d="M1128.25,808.7s-1.9,23.99-.36,31.78c.82,4.17,5.42,12.77,3.31,16.69-2.11,3.93-4.51,4.91-4.51,4.91l-54.59.88c-2.97.05-1.01-1.86,1.39-3.62,3.92-2.88,7.09-4.78,19.63-10.84.82-.39,3.79-2.28,4.87-2.94,2.72-1.66,5.46-4.27,7.81-6.89,3.92-4.36,4.26-25.48,4.26-25.48l18.2-4.5Z"/>
              <path class="cls-25" d="M1085.58,489.87s-6.87,38.94-2.36,64.48c4.51,25.53,26.18,262.19,26.18,262.19l24.08,1.36s5.05-98.86,4.14-112.6c-.9-13.75-8.05-36.75-8.05-36.75l2.4-79.82-30.38-104.86-16.01,6.01Z"/>
              <path class="cls-12" d="M1156.34,481.68s18.96,28.48,23.47,52.04c4.51,23.57-3.31,96,5.37,126.88,4.7,16.72,22.52,42.54,25.22,64.14,2.71,21.6,13.33,78.19,13.33,78.19l-24.06,4.76-55.93-141.33-43.87-127.74-11.24-65.79,67.71,8.84Z"/>
              <path class="cls-4" d="M1141,319.65s16.6,1.88,26.53,12.69c9.93,10.8-16.05,97.63-17.86,111.38-1.81,13.75,14.8,45.82,14.8,45.82,0,0-62.03,11.46-78.89.33,0,0-1.81-98.86,0-108.68,1.81-9.82,16.85-49.76,20.46-53.68,3.61-3.93,34.95-7.86,34.95-7.86Z"/>
              <path class="cls-22" d="M1164.47,340.49c-1.6-4.84-7.09-7.17-11.76-5.15-6.41,2.77-15.26,8.03-19.58,17.04-7.22,15.06-32.5,66.78-40.32,68.74-7.82,1.96-39.72-53.68-39.72-53.68,0,0,.9-9.82-1.81-15.38-2.71-5.57-10.83-11.46-12.04-9.49-1.2,1.96,4.51,6.87,4.51,7.86s-2.41,1.64-5.72-.33c-3.31-1.96-5.1-5.94-5.1-5.94,0,0-5.43,9.86.29,18.7,5.72,8.84,8.13,12.44,8.13,12.44,0,0,37.01,82.16,50.56,83.15,12.61.91,85.25-79.64,72.57-117.96Z"/>
              <path class="cls-22" d="M1132.64,286.18s.13.74.36,1.99c1.12,6.02,5.43,26,8.34,31.49,3.52,6.64-12.04,27.81-27.03,25.22-4.46-.77,3.77-19.45,3.37-21.43-.76-3.79-1.78-8.96-2.83-14.25-.59-2.99-1.19-6.02-1.76-8.87-1.6-8.1-2.91-14.72-2.91-14.72l22.45.56Z"/>
              <path class="cls-10" d="M1133.01,288.17c-.23-1.26-.36-1.99-.36-1.99l-22.45-.56s1.31,6.62,2.91,14.72c.56,2.83,1.16,5.85,1.75,8.82,3.47-.51,7.09-2.19,10.72-5.36,3.96-3.46,6.55-7.61,8.12-12.05-.28-1.42-.51-2.64-.68-3.57Z"/>
              <path class="cls-22" d="M1119.14,232.83s9.15,1.27,15.79,9.83c6.63,8.56,13.78,35.03-2.69,49.43-16.47,14.39-32.75-1.9-35.17-19.17-2.41-17.27-1.93-40.71,22.07-40.08Z"/>
              <path class="cls-22" d="M1091.79,267.01c1.97,3.81,5.27,5.93,7.37,4.72,2.1-1.21,2.22-5.28.25-9.1-1.97-3.82-5.27-5.93-7.37-4.72-2.11,1.21-2.22,5.28-.25,9.1Z"/>
              <path class="cls-6" d="M1116.35,232.43s14.13,25.17,24.25,26.34c10.11,1.16,11.44,14.54,11.44,14.54,0,0-3.61-30.82-13.63-36.77-10.01-5.94-22.06-4.11-22.06-4.11Z"/>
              <path class="cls-22" d="M1137.29,264.76c-.82,4.47.83,8.57,3.69,9.16,2.86.59,5.85-2.56,6.67-7.03.82-4.47-.83-8.57-3.69-9.16-2.86-.59-5.85,2.56-6.67,7.03Z"/>
              <path class="cls-24" d="M1209.82,847.42c13.12,2.39,21.84-5.27,26.38-11,3.33,6.49,5.38,14.6,2.92,19.93-2.16,4.7-8.04,5.98-13.01,6.17-5.25.19-10.17-2.55-12.77-7.12-1.22-2.13-2.47-4.79-3.52-7.98Z"/>
              <path class="cls-24" d="M1097.99,845.56c14.44,3.7,25.11,1.18,31.08-1.22,1.54,4.35,3.58,9.82,2.5,12.97-1.33,3.86-3.21,4.73-4.88,4.77-13.19.35-48.31.82-58.36.95-1.4.02-2.18-1.62-1.28-2.7,2.49-2.97,29.86-14.12,30.94-14.77Z"/>
            </g>
            <g>
              <rect class="cls-4" x="962.96" y="80.34" width="161.86" height="83.08" rx="20.77" ry="20.77" transform="translate(2087.78 243.76) rotate(180)"/>
              <polygon class="cls-4" points="1073.25 151.96 1089.01 199.23 1043.17 151.96 1073.25 151.96"/>
              <path class="cls-13" d="M1077.31,125.05c0,4.18,3.63,7.57,8.11,7.57s8.11-3.39,8.11-7.57-3.63-7.57-8.11-7.57-8.11,3.39-8.11,7.57Z"/>
              <path class="cls-13" d="M1035.87,125.05c0,4.18,3.63,7.57,8.11,7.57s8.11-3.39,8.11-7.57-3.63-7.57-8.11-7.57-8.11,3.39-8.11,7.57Z"/>
              <path class="cls-13" d="M994.43,125.05c0,4.18,3.63,7.57,8.11,7.57s8.11-3.39,8.11-7.57-3.63-7.57-8.11-7.57-8.11,3.39-8.11,7.57Z"/>
            </g>
            <g>
              <rect class="cls-12" x="171.76" y="51.86" width="191.48" height="98.28" rx="24.57" ry="24.57"/>
              <polygon class="cls-12" points="232.76 136.58 214.12 192.5 268.35 136.58 232.76 136.58"/>
              <path class="cls-13" d="M227.97,104.74c0,4.94-4.29,8.95-9.59,8.95s-9.59-4.01-9.59-8.95,4.29-8.95,9.59-8.95,9.59,4.01,9.59,8.95Z"/>
              <path class="cls-13" d="M276.99,104.74c0,4.94-4.29,8.95-9.59,8.95s-9.59-4.01-9.59-8.95,4.29-8.95,9.59-8.95,9.59,4.01,9.59,8.95Z"/>
              <path class="cls-13" d="M326.01,104.74c0,4.94-4.29,8.95-9.59,8.95s-9.59-4.01-9.59-8.95,4.29-8.95,9.59-8.95,9.59,4.01,9.59,8.95Z"/>
            </g>
            <g>
              <path class="cls-17" d="M751.94,506.89c10.15-2.93,10.43-1.12,11.71-1.53,1.52-.49,13.81-17.12,13.81-17.12,0,0,36.56-48.77,38.43-51.48l11.53-63.1,34.64-.27s-14.47,68.15-15.88,71.52c-1.42,3.37-59.35,62.94-64.26,68.36,0,0-3.17,8.8-5.36,14.25-2.19,5.45-6.87,9.43-7.74,10.85-.13.21-3.33,4.74-8.9,9.15-4.81,3.8-2.27-2.12-2.27-2.12,0,0,7.44-8.73,6.57-9.25-.67-.4-4.42,4.63-9.69,8.89-1.35,1.1-2.7,2.17-3.94,3.15-3.26,2.57-6.02,1.2-3.11-2.06,1.03-1.15,2.79-3.02,4.26-4.16,1.59-1.23,2.58-2.9,3.73-4.15,2.28-2.48,3.98-4.26,3.81-4.3-.22-.06-.15-.9-1.63.22-1.78,1.34-4.82,5.07-7.62,6.84-1.58,1-4.74,3.3-4.74,3.3,0,0-5.54,2.54-5.83,2.26-1.59-1.52,1.57-4.34,3.94-5.4,1.07-1.47,4.47-3.79,4.47-3.79,0,0,5.64-6.3,4.65-7.18-.42-.37-4.4,3.04-8.91,5.74-4.18,2.51-8.9,4.33-9.62,3.55-1.22-1.32,3.07-4.62,3.07-4.62,0,0,3.15-2.14,4.13-2.93,1.15-.93,4.35-3.99,4.35-3.99,0,0,10.57-11.22,9.57-11.98-1-.76-4.28-1.79-5.21-1.34-.93.45-2.09,2.19-3.02,2.64-.93.45-2.61.23-3.39-.89-.77-1.12,2.67-5.05,2.67-5.05,0,0,2.83-3.17,5.76-4.02Z"/>
              <path class="cls-9" d="M809.45,823.47s1.23,21.77,1.24,21.82c.45,2.76,2.24,9.59,2.24,12.11,0,9.44-42-8.01-32.59-12.2.85-.38,5.32-3.24,5.6-6.46.43-4.95,1.53-14.97,1.53-14.97l21.99-.31Z"/>
              <path class="cls-24" d="M780.44,845.11s9.86,2.89,14.91,3.61c5.05.72,11.71-5.36,15.28-3.71,3.93,1.81,3.53,19.6,3.53,19.6,0,0-52.64,3.1-67.51-1.69-5.89-1.9,13.62-11.08,33.78-17.81Z"/>
              <path class="cls-9" d="M901.99,825.56s1.23,21.77,1.24,21.82c.45,2.76,2.24,9.59,2.24,12.11,0,9.44-42-8.01-32.59-12.2.85-.38,6.64-5.38,6.92-8.59.43-4.95.2-12.83.2-12.83l21.99-.31Z"/>
              <path class="cls-24" d="M872.98,847.2s9.86,2.89,14.91,3.61,11.71-5.36,15.28-3.72c3.93,1.81,4.09,18.08,4.09,18.08,0,0-56.28,4.08-69.51.25-5.95-1.72,15.06-11.49,35.22-18.22Z"/>
              <path class="cls-8" d="M835.43,511.26l-17.76,7.66-37.35,178.39,1.51,133.73,29.94.7s13.93-116.98,13.93-126.05,64.51-158.65,64.51-158.65l-54.79-35.78Z"/>
              <path class="cls-4" d="M849.13,521.08s13.08,137.44,13.08,160.61,10.61,152.84,10.61,152.84l30.02-.17s2.17-39.52,5.38-97.67c.5-9.11-.65-27.48,0-36.91,4.67-67.81,13.9-131.64,9.49-156.94-.71-4.07-2.04-14.72-4.64-17.41-19.66-20.34-63.94-4.34-63.94-4.34Z"/>
              <path class="cls-25" d="M812.52,412.61l36.32-2.43s1.79-32.47,1.79-47.95c0-18.79,5.73-46.49,3.49-45.97-6.28,1.46-17.13,7.25-22.17,14.26-17.43,24.28-19.43,82.1-19.43,82.1Z"/>
              <path class="cls-12" d="M898.57,315.53s20.71,2.88,26.16,6.88c6.14,4.51,12.95,14.6,12.95,14.6,0,0-25.43,120.21-25.47,140.43-.04,15.65,5.51,54.07,5.51,54.07,0,0-76.85,4.85-105.95-6.64,0,0,9.19-45.7,9.19-57.7s10.99-121.12,13.5-128.74c2.27-6.91,6.42-19.34,20.46-22.4,14.04-3.06,43.66-.51,43.66-.51Z"/>
              <path class="cls-9" d="M892.91,283.17l5.13,33.57s-18.72,39.97-29.9,36.5c-9.38-2.91-3.61-38.27-3.61-38.27,0,0,5.11-18.99,3.58-28.49-1.53-9.5,24.8-3.3,24.8-3.3Z"/>
              <path class="cls-17" d="M868.11,286.47c-1.53-9.5,24.8-3.3,24.8-3.3l.43,2.78c-.77,1.86-1.71,3.46-2.86,4.68-5.88,6.29-15.08,10.07-23.03,10.35.8-5.12,1.28-10.62.66-14.51Z"/>
              <g>
                <path class="cls-9" d="M897.24,235.68c.74-.27,5.97,38.23-3.94,48.82-9.91,10.59-29.22,14.06-36.14,5.72-7.66-9.23-7.28-50.61,8.13-61.5,15.41-10.9,31.95,6.96,31.95,6.96Z"/>
                <path class="cls-21" d="M871.15,208.13c11.91,2.41,19.62,9.64,22.46,12.72,5.41.63,12.76,3.6,20.35,16.09,9.33,15.35,2.44,32.35-8.42,40.7-10.86,8.34-10.74,18.03-10.74,18.03l-1.69-5.03c-1.27-3.78-1.78-7.78-1.36-11.74.25-2.38.77-4.95,1.76-7.06,2.61-5.57-5.61-9.27-7.92-13.91-1.78-3.57-1.86-11.74-4.66-17.64l-3.34-4.5s-7.71-5.96-15.25-4.28c-7.54,1.68-6.46-26.47,8.82-23.37Z"/>
                <path class="cls-9" d="M886.08,264.77c-.08,4.7,2.07,8.54,4.8,8.59,2.73.05,5.01-3.72,5.09-8.42.08-4.7-2.07-8.54-4.8-8.59-2.73-.05-5.01,3.72-5.09,8.42Z"/>
              </g>
              <path class="cls-16" d="M845.75,437.81l-.5,2.87c-.25,1.47-1.66,2.46-3.13,2.21l-59.4-10.29c-1.47-.26-2.46-1.66-2.21-3.13l.5-2.87c.26-1.47,1.66-2.46,3.13-2.21l59.4,10.29c1.47.26,2.46,1.66,2.21,3.13Z"/>
              <path class="cls-9" d="M929.96,331.01c-6.97-.2-13.13,45.77-8.72,50.3,4.42,4.53,5.26,61.15,5.26,61.15l-65.74-1.63v.02c-1.29-.86-29.14-13.19-31.79-10.28-2.66,2.92,5.9.53,8.27,2.12,2.36,1.59-1.77,5.57-1.77,5.57,0,0-16.66,2.42-19.91-1.03-3.25-3.45-11.92-9.28-13.11-5.83-.61,1.78,3.87,7.17,6.39,9.43-3.15-2.35-6.91-4.86-8.2-4.42-2.36.8-1.38,3.8-.1,4.68,1.28.88,14.51,10.98,16.57,11.69,2.02.69,32.78,1.45,38.1,2.63,0,0,86.7,19.74,91.62,18.51,4.32-1.08,8.65-28.83,8.65-50.09s-3.74-92.19-25.52-92.82Z"/>
              <path class="cls-12" d="M920.92,320.53s12.13,2.79,24.66,16.87c11.39,12.8,18.57,84.5,18.57,84.5l-39.34,6.36-3.14-34.68-10.51-15.86,9.77-57.18Z"/>
            </g>
            <g>
              <g>
                <path class="cls-1" d="M415.69,251.6s-32.18-8.27-36.02,25.98,13.58,39.56,4.13,56.1c-9.45,16.53-20.08,4.13-22.14,51.08-2.07,46.94,105.6,103.97,133.95,76.1,92.19-90.61-17.21-127.51-12.78-155.27,4.43-27.75-8.22-51.31-25.05-61.35-16.83-10.04-38.25-10.06-42.09,7.36Z"/>
                <path class="cls-18" d="M524.99,833.82s-.58,8.93,3.97,14.01c4.55,5.08,21.47,7.77,23.75,13.54,2.27,5.78-17.05,6.13-23.55,4.36-6.5-1.77-23.38-3.16-27.6-3.39-4.23-.23,5.43-28.31,6.3-29.09.87-.78,17.14.57,17.14.57Z"/>
                <path class="cls-18" d="M426.14,828.28s4.19,18.85,3.79,26.13c-.4,7.28-9.26,18.57-16.07,18.19-6.81-.37-12.45-4.92-10.79-13.78,1.66-8.86,6.82-29.91,6.82-29.91l16.24-.64Z"/>
                <path class="cls-12" d="M375.65,509.93s-4.34-143.62,2.47-150.44c2.73-2.73,25.05-10.1,40.3-12.61,22.83-3.75,40.71-2.15,40.71-2.15,0,0,23.26,27.88,23.26,38.22s1.49,128.08,1.49,128.08c18,6.64,45.86,125.9,47.95,156.62,2.09,30.73-2.43,173.65-2.43,173.65l-26.22-2.85c-14.31-22.45-20.76-140.65-24.94-155.37-5.77-20.31-32.88-82.48-32.88-82.48l-13.96-6.09s3.23,93.72,2.05,115.32c-1.18,21.6.16,126.23.16,126.23l-26.3-1.44c-20.59-36.92-35.29-207.27-34.81-216.19.49-8.92-8.6-23.55-10.5-49.08-1.5-20.15,13.64-59.44,13.64-59.44Z"/>
                <rect class="cls-13" x="421.67" y="506.24" width="46.64" height="4.94" transform="translate(889.98 1017.42) rotate(180)"/>
                <rect class="cls-8" x="437.78" y="505.01" width="14.98" height="8.15" rx="3" ry="3" transform="translate(890.53 1018.18) rotate(180)"/>
                <path class="cls-13" d="M375.65,509.93s-3.86-127.54,1.4-147.94c6.83-4.6,28.54-12.74,33.86-13.16-.97,10.49,8.55,69.47,18.31,99.76,6.16,19.12,5.25,42.58,2.93,60.81h0c-1.45,11.34-3.69,22.29-6.23,31.85-.56.17-15.04,7.94-40.19,7.94-1.08-.06-10.5-.69-21.26-2.36,3.98-18.21,11.18-36.89,11.18-36.89Z"/>
                <path class="cls-13" d="M452.95,542.67c-.55-1.82,3.72-22.55,5.06-33.28h.03c8.84-71.82.88-163.29.76-164.68,0,0,.01,0,.02,0,.54.53,2.05,2.24,4.08,4.69,6.24,7.96,18.21,24.09,19.41,32.3.02.25.03.49.03.72,0,.07,0,.14,0,.22,0,1.3.02,3.88.06,7.44,0,.69.03,1.42.08,2.17.3,30.29,1.41,118.78,1.41,118.78,5.82,2.14,12.66,16.04,19.33,34.9-21.67,1.36-48.74,1.75-50.27-3.27Z"/>
                <path class="cls-8" d="M350.19,528.67c-.04,18.01,48.44,19.28,71.48,8.93l-2.51-78.06-7.91-111.19s-29.12,5.78-39.04,12.52c0,0-3.22,115.6-6.04,139.11-2.82,23.51-15.97,20.48-15.99,28.69Z"/>
                <path class="cls-8" d="M484.76,351.04s11.37,92.05,11.37,116.03,4.54,65.36,4.54,65.36c0,0-24.53,9.4-41.66,5.17,0,0,16.26-92.34,16.26-98.37s-16.48-94.56-16.48-94.56c0,0,15.65.84,25.96,6.37Z"/>
                <polygon class="cls-24" points="499.97 840.22 531.78 842.29 531.82 834.06 498.7 832.25 499.97 840.22"/>
                <polygon class="cls-24" points="403.76 834.92 435.31 836.99 435.49 828.8 402.37 826.99 403.76 834.92"/>
                <path class="cls-24" d="M503.34,846.07c2.51,3.17,10.69,9.66,34.65,6.79,6.24,2.52,13.29,4.91,14.71,8.5,2.27,5.78-17.05,6.13-23.55,4.36-6.5-1.77-23.38-3.16-27.6-3.39-2.3-.13-.48-8.52,1.79-16.26Z"/>
                <path class="cls-24" d="M429.93,854.42c-.4,7.28-9.26,18.57-16.07,18.19-6.81-.37-12.45-4.92-10.79-13.78.56-2.98,1.51-7.34,2.54-11.82.87,5.53,3.44,14.93,10.7,11.68,7.86-3.52,11.34-11.69,12.72-14.88.61,4.08,1.03,8.06.9,10.61Z"/>
                <path class="cls-5" d="M497.87,502.29c-9.2-.47-20.91-1.06-32.44-1.63.69-3.99,1.39-8.1,2.09-12.21l29.47,1.56c.26,4.08.56,8.24.87,12.27Z"/>
                <path class="cls-5" d="M420.42,498.64c-.06,0-.11,0-.16,0-7.15,0-34.98,7.6-45.09,7.6-3.87,0-7.08-1.11-9.56-2.49.02-.08.03-.17.05-.26.2-1.1.38-2.26.53-3.5.07-.6.14-1.27.22-1.99.36-3.48.63-7.42.88-11.13h52.76l.38,11.78Z"/>
                <path class="cls-8" d="M484.55,351.25s8.61,1.81,20.75,42.51c12.15,40.7,4.08,92.99-4.31,98.42-8.38,5.43-89.79,3.42-89.79,3.42l-.32-29.32s61.63-9.63,67.73-17.11c1.5-1.84-1.07-9.71-.54-18.67,1.65-27.51,6.47-79.24,6.47-79.24Z"/>
                <path class="cls-18" d="M481.54,444.83s8.42-5.8,11.59-9.68c3.16-3.88,9.49-9.1,9.78-6.33.28,2.77-2.62,6.75-2.62,6.75,0,0,11.51-8.04,13.03-6.8,1.52,1.24,3.04,9.86,1.97,19.37-1.07,9.51-28.04,16.44-28.04,16.44l-5.71-19.75Z"/>
                <path class="cls-4" d="M373.93,500.15c29.35,4.9,91.3-16.92,116.42-24.81l-9.42-32.59s-73.99,20.47-83.68,16.12c-4.79-2.15-17.07-24.94-21.58-48.11-4.61-23.71-3.47-49.87-3.47-49.87,0,0-21.25,27.8-15.26,86.67,4.57,44.92,4.06,50.44,16.98,52.6Z"/>
                <path class="cls-18" d="M381.36,433.26s6.93,5.86,12.33,10.27c5.4,4.41,13.87,16.25,13.87,16.25,0,0-10.05,2.39-13.57,2.74-3.52.36-15.11-6.09-19.13-5.68-4.02.41-2.85-5.56,2.08-4.53,4.93,1.02,9.81,1.54,9.81,1.54,0,0-11.57-7.59-16.98-12-5.4-4.41-1.03-7.74,3.39-4.13,4.42,3.61,9.22,5.65,9.22,5.65,0,0-15.57-13.16-13.31-15.93,2.26-2.77,12.28,5.82,12.28,5.82Z"/>
                <path class="cls-18" d="M445.11,312.56s1.66,23.26,3.82,28.34c.62,1.45,1.67,2.53,2.85,3.32,6.12,4.11-4.8,55.9-10.37,54.76-6-1.23-20.86-33.35-25.64-43.77-1.42-3.08-.14-6.81,2.95-8.21.01,0,.03-.01.04-.02,5.16-2.29,1.36-44.93,1.36-44.93l25,10.51Z"/>
                <path class="cls-20" d="M423.53,300.37s-1.23.69-1.09,2.48c.28,3.58,2.15,8.04,3.75,11.25,7.42,14.84,18.14,22.02,25.52,23.03-1.84-7.51-3.17-26.26-3.17-26.26l-25-10.51Z"/>
                <path class="cls-18" d="M419.29,283.76s3.8-16.8,16.4-21.78c12.6-4.98,24.12-1.24,28.49,15.21,4.37,16.44-1.95,42.53-9.61,50.53-7.66,8.01-34.33-5.41-35.28-43.95Z"/>
                <path class="cls-18" d="M423.07,289.07s-6.31-9.78-10.19-4.12c-3.88,5.66-.44,19.16,6.89,19.87,7.33.71,3.3-15.74,3.3-15.74Z"/>
              </g>
              <g>
                <path class="cls-26" d="M103.15,826.09s-.07.73-.07,1.96c0,3.68.63,11.78,5.7,17.76,6.76,7.97,6.8,17.89-.34,19.59-7.14,1.69-24.16-.54-24.16-.54,0,0-3.85-7.59-1.22-27.85,2.63-20.26,4.15-42.48,4.15-42.48l19.4-3.44-3.45,35Z"/>
                <path class="cls-24" d="M106.95,834.71s7.19,11.08,8.88,15.7c1.68,4.62,1.32,16.11,0,17.3-11.63,10.42-33.69,1.04-33.69,1.04,0,0-1.52-7.64-2.28-17.02-.76-9.38-.33-18.12,2.28-18.12s3.08,4.92,9.05,3.53c5.97-1.39,9.64-3.82,15.77-2.43Z"/>
                <path class="cls-13" d="M80.3,856.4c4.48,1.99,10.57,4.31,16.23,5.23,6.04.98,14.18-2.07,20.32-5.14.32,4.91-.14,10.42-1.03,11.22-11.63,10.42-33.69,1.04-33.69,1.04,0,0-1.04-5.23-1.83-12.35Z"/>
                <path class="cls-26" d="M159.13,812.74c-2.52,8.98-.03,18.86,6.42,24.8,2.23,2.05,4.81,3.97,7.74,5.42,11.3,5.6,25.93,4.34,27.97,15.85,2.04,11.51-71.64-3.23-71.64-3.23,0,0,5.11-27.99,5.44-32.68.33-4.69-.45-21.91-.45-21.91l28.46-2.32-3.94,14.07Z"/>
                <path class="cls-24" d="M132.61,835.77s-.9,4.44-2.96,11.98c-2.06,7.54-.78,14.63-.78,14.63,0,0,69.01,3.71,71.81,1.23,2.79-2.48,1.36-11.51.65-12.31-.71-.8-9.46-3.48-13.96-6.63-4.49-3.14-19.83-15.04-25.02-14.56-5.18.48-7.58,4.82-17.42,5.32-9.84.5-9.88-1.84-12.33.33Z"/>
                <path class="cls-13" d="M200.68,863.61c-2.79,2.48-71.81-1.23-71.81-1.23,0,0-.84-4.66-.07-10.43,36.03,7.57,72.53-.64,72.53-.64.71.8,2.14,9.83-.65,12.31Z"/>
                <path class="cls-23" d="M128.81,851.95c24.6,5.57,51.88,4.39,72.53-.64-37.57,6.44-67.86,1.45-65.76,1.69-.09-.01-7.22-1.12-6.77-1.05Z"/>
                <path class="cls-4" d="M74.64,537.54l6.48,283.45,31.02-4.45s9.83-227.46,15.58-234.2c5.75-6.74,8.05.42,8.05.42,0,0,24.74,94.63,20.14,113.51-4.6,18.88-25.14,120-25.14,120l29.74,1.35s33.95-77.53,33.95-131.46-20.97-143.59-20.97-143.59l-98.86-5.02Z"/>
                <rect class="cls-24" x="129.58" y="809.11" width="35.82" height="8.34" transform="translate(294.99 1626.56) rotate(180)"/>
                <rect class="cls-24" x="78.38" y="810.46" width="36.17" height="10.53" transform="translate(192.92 1631.44) rotate(180)"/>
                <path class="cls-8" d="M87.79,814.6c.07,0,.13,0,.2-.03.49-.13.81-.7.7-1.28-5.73-30.02-6.1-225.06-6.1-227.02,0-.59-.41-1.07-.92-1.07h0c-.51,0-.92.48-.92,1.08.01,8.04.37,197.24,6.15,227.49.1.5.48.84.9.84Z"/>
                <path class="cls-8" d="M135.82,814.6c.37,0,.73-.27.86-.71,1.39-4.45,34.08-109.14,32.23-123.59-1.82-14.25-22.71-104-23.6-107.81-.13-.57-.64-.91-1.13-.75-.49.16-.78.75-.64,1.32.22.93,21.74,93.44,23.55,107.57,1.78,13.92-31.8,121.45-32.14,122.53-.18.56.07,1.18.55,1.38.11.05.21.07.32.07Z"/>
                <polygon class="cls-25" points="168 339.06 211.3 396.18 160.28 414.79 168 339.06"/>
                <path class="cls-12" d="M55.29,320.61c6.58-6.58,21.89-11.41,31.88-14,5.74-1.49,11.7-1.83,17.57-1.03l22.47,3.05s29.19,18.76,40.13,29.71c10.95,10.94,20.85,79.48,20.85,79.48l-4.96,26.11,5.71,114.98c-2.51,0-77.87,9.21-119.74-3.35,0,0,0-61.32-1.15-98.56-4.92-28.28-21.46-127.67-12.75-136.38Z"/>
                <path class="cls-25" d="M55.75,320.16c3.45-3.22,8.76-5.81,13.11-7.61,0,0,0,0,0,0,0,0,8.3-4.55,15.83,26.49,7.53,31.04-2.03,68.81,1.3,72.15,3.34,3.34,76.65-.44,76.65-.44,0,0-42.83,24.62-63.74,42.57-8.38,7.2-30.62,10.98-30.66,10.74-.06-2.44-.13-4.8-.2-7.08-2.37-13.66-22.38-127.41-12.29-136.82Z"/>
                <path class="cls-7" d="M240.7,385.57l-36.81,69.56c-.86,1.63-2.59,2.61-4.42,2.5l-43.73-2.58c-3.13-.18-5.21-3.37-4.15-6.36l22.55-63.5c.64-1.79,2.27-3.03,4.14-3.14l57.99-3.48c3.67-.22,6.16,3.72,4.42,7Z"/>
                <path class="cls-19" d="M148.13,448.34l22.84-62.9c.64-1.78,2.3-3,4.2-3.11l2.26-.13c-1.32.47-2.39,1.51-2.88,2.87l-22.84,63.5c-.98,2.73.68,5.62,3.39,6.25l-2.78-.16c-3.17-.18-5.28-3.34-4.2-6.3Z"/>
                <path class="cls-26" d="M65.71,405.21l3.47,12.5s74.01-19.1,82.69-23.27c7.03-3.37,34.96-10.84,45.36-10.12,1.69.12,1.91,2.51.26,2.9-6.55,1.58-19.57,4.87-19.57,6.17,0,1.74,13.11,4.29,12.16,6.43-1.91,4.3-8.34,6.78-9.56,10.77-1.22,4-14.52.87-19.07.87s-88.98,51.25-114.52,39.09c-25.54-12.16-10.08-66.1-10.08-66.1l28.84,20.76Z"/>
                <path class="cls-26" d="M204.49,431.96c1.69-1.69,1.61-5.86,3.56-7.82,1.95-1.95,4.08,2,4.6-2.43.52-4.43-2.61-11.29.43-10.94,3.04.35,7.21,12.86,7.21,12.86,2.19,5.1-7.64,24.15-12.85,22.85-5.2-1.3-7.22-7.48-7.22-10.34s2.56-2.48,4.26-4.17Z"/>
                <path class="cls-13" d="M127.23,308.63s0,0,0,0c.02.02.06.04.11.07.01,0,.03.02.05.03.03.02.05.04.09.06.02.01.04.03.06.04.05.03.11.07.18.11.02.01.05.03.07.05.07.04.14.09.21.14.01,0,.02.02.04.02.02.01.04.03.06.04.02.01.03.02.05.03.04.02.08.05.11.07.02.01.04.03.06.04.14.09.3.19.47.3.03.02.06.04.09.06,2.77,1.81,8.7,5.73,15.28,10.36h0s2.74,10.98,1.43,18.01c-1.3,7.04-4.04,9.25-7.95,7.69-3.91-1.56-11.25-11.98-12.92-11.4-1.67.58-13.01,14.79-18.48,12.57-3.68-1.49-14.72-25.65-20.24-40.01.4-.11.79-.21,1.18-.31,5.74-1.49,11.7-1.83,17.57-1.03l22.47,3.05h0s0,.01,0,.01Z"/>
                <path class="cls-26" d="M139,290.85c-1.75,9.22-2.58,19.17-1,24.95,0,0-3.64,15.78-12.73,16.55s-26.31-27.17-26.31-27.17l18.91-29.74,21.13,15.41Z"/>
                <path class="cls-15" d="M137.22,305.33c-10.91-1.91-21.12-10.25-23.95-22.65l4.6-7.24,21.13,15.41c-.93,4.87-1.59,9.93-1.79,14.48Z"/>
                <path class="cls-26" d="M158.36,235.01s8.9,55.87-7.03,62.31c-15.93,6.45-37.46-3.89-39.07-22.85-1.6-18.96,2.45-57.61,46.09-39.46Z"/>
                <path class="cls-3" d="M142.23,223.56s30.36-8.97,32.16-.1c1.8,8.87-8.2,15.47-15.17,16.06-6.96.59-24.76-.33-30.17,6.08-5.41,6.41-15.09,36.02-15.09,36.02l-5.47,8.57s-2.23-15.6-10.09-25.13c-7.87-9.53-3.45-25.95,4.1-37.18,7.55-11.23,32.84-3.73,39.72-4.31Z"/>
                <path class="cls-11" d="M122.87,261.05s-2.89-7.83-7.17-6.71c-9.72,2.52-2.59,19.82.61,20.29,6.49.96,9.11-4.16,6.57-13.57Z"/>
                <path class="cls-12" d="M82.72,344.59c.32,18.53-9.71,73.22-9.71,73.22,0,0-38.91-.78-42.04-3.91-3.13-3.13,6.9-85.65,24.08-97.21,20.53-13.81,27.36,10.02,27.67,27.9Z"/>
              </g>
            </g>
            <g>
              <path class="cls-12" d="M729.04,42.11h149.15c14.21,0,25.75,11.54,25.75,25.75v51.49c0,14.21-11.54,25.75-25.75,25.75h-149.15c-14.21,0-25.75-11.54-25.75-25.75v-51.49c0-14.21,11.54-25.75,25.75-25.75Z" transform="translate(1607.23 187.2) rotate(180)"/>
              <polygon class="cls-12" points="840.75 112.31 844.54 185.27 793.05 110.6 840.75 112.31"/>
            </g>
          </g>
        </g>
      </g>
    </g>
  </g>
</svg>