<?xml version="1.0" encoding="UTF-8"?>
<svg id="Camada_2" data-name="Camada 2" xmlns="http://www.w3.org/2000/svg" xmlns:xlink="http://www.w3.org/1999/xlink" viewBox="0 0 2228.2 1521.04">
  <defs>
    <style>
      .cls-1 {
        fill: #663000;
      }

      .cls-1, .cls-2, .cls-3, .cls-4, .cls-5, .cls-6, .cls-7, .cls-8, .cls-9, .cls-10, .cls-11, .cls-12, .cls-13, .cls-14, .cls-15, .cls-16, .cls-17, .cls-18, .cls-19, .cls-20, .cls-21, .cls-22, .cls-23, .cls-24, .cls-25, .cls-26, .cls-27, .cls-28, .cls-29, .cls-30, .cls-31, .cls-32, .cls-33, .cls-34, .cls-35, .cls-36, .cls-37, .cls-38, .cls-39, .cls-40, .cls-41, .cls-42, .cls-43, .cls-44, .cls-45, .cls-46, .cls-47, .cls-48 {
        stroke-width: 0px;
      }

      .cls-2 {
        fill: #744da5;
      }

      .cls-3 {
        fill: #2b1500;
      }

      .cls-4 {
        fill: #209169;
      }

      .cls-49 {
        opacity: .5;
      }

      .cls-5 {
        fill: #6139bc;
      }

      .cls-6 {
        fill: #703d00;
      }

      .cls-7 {
        fill: #2ac494;
      }

      .cls-8 {
        fill: #4a2c76;
      }

      .cls-9 {
        fill: #ffdd71;
      }

      .cls-10 {
        fill: #228c66;
      }

      .cls-11 {
        fill: #26a87d;
      }

      .cls-12 {
        fill: #ffc3a3;
      }

      .cls-13 {
        fill: #b78300;
      }

      .cls-14 {
        fill: #f2ad8d;
      }

      .cls-15 {
        fill: #41b8e1;
      }

      .cls-16 {
        fill: #ffbf6c;
      }

      .cls-17 {
        fill: #74daee;
      }

      .cls-18 {
        fill: #7a54a9;
      }

      .cls-19 {
        fill: #ffed94;
      }

      .cls-20 {
        fill: #ffdf43;
      }

      .cls-21 {
        fill: #56309e;
      }

      .cls-22 {
        fill: #fff;
      }

      .cls-23 {
        fill: #0098c1;
      }

      .cls-24 {
        fill: #12825a;
      }

      .cls-25 {
        fill: #c8d1ce;
      }

      .cls-26 {
        fill: #ff8150;
      }

      .cls-27 {
        fill: #ff4a1e;
      }

      .cls-28 {
        fill: #8e5f00;
      }

      .cls-29 {
        fill: #ffb792;
      }

      .cls-30 {
        fill: #a56950;
      }

      .cls-31 {
        fill: #ee8914;
      }

      .cls-32 {
        fill: #895b49;
      }

      .cls-33 {
        fill: #ffaf3b;
      }

      .cls-34 {
        fill: url(#Gradiente_sem_nome_7);
      }

      .cls-35 {
        fill: #6441a6;
      }

      .cls-36 {
        fill: #4a2c6a;
      }

      .cls-37 {
        fill: url(#Gradiente_sem_nome_5);
      }

      .cls-38 {
        fill: #005134;
      }

      .cls-39 {
        fill: #ffd91f;
      }

      .cls-40 {
        fill: #fcebe3;
      }

      .cls-41 {
        fill: url(#Gradiente_sem_nome_3);
      }

      .cls-42 {
        fill: #ff9769;
      }

      .cls-43 {
        fill: #0cf;
      }

      .cls-44 {
        fill: #ffaef4;
      }

      .cls-45 {
        fill: #eaeaea;
      }

      .cls-46 {
        fill: #a04800;
      }

      .cls-47 {
        fill: #ffc22a;
      }

      .cls-48 {
        fill: #4ac6f0;
      }
    </style>
    <linearGradient id="Gradiente_sem_nome_5" data-name="Gradiente sem nome 5" x1="1152.19" y1="1306.16" x2="1656.94" y2="1306.16" gradientUnits="userSpaceOnUse">
      <stop offset="0" stop-color="#fff5d6"/>
      <stop offset="1" stop-color="#ffd91f"/>
    </linearGradient>
    <linearGradient id="Gradiente_sem_nome_7" data-name="Gradiente sem nome 7" x1="1152.19" y1="1152.81" x2="1750.14" y2="1152.81" gradientUnits="userSpaceOnUse">
      <stop offset="0" stop-color="#fff7dc"/>
      <stop offset="1" stop-color="#ffd91f"/>
    </linearGradient>
    <linearGradient id="Gradiente_sem_nome_3" data-name="Gradiente sem nome 3" x1="786.33" y1="1152.81" x2="1152.19" y2="1152.81" gradientUnits="userSpaceOnUse">
      <stop offset="0" stop-color="#fed79c"/>
      <stop offset="1" stop-color="#ffd91f"/>
    </linearGradient>
  </defs>
  <g id="_Layer_" data-name="&amp;lt;Layer&amp;gt;">
    <g>
      <g>
        <g>
          <path class="cls-43" d="M138.16,1515.92s-264.01-358.02-44.65-745.64c194.63-343.92,421.56-320.41,588.04-180.84,70.91,59.44,275.35,7.33,449.36-342.62,237.3-477.23,1059.85-187.79,909.87,546.45-72.58,355.32,220.88,368.23,71.35,723.41l-1973.98-.75Z"/>
          <path class="cls-11" d="M2228.12,1519.72c-2.22-3.9-2231.98,7.47-2228.11-3.89-.87-.51,2243.59-11.47,2228.11,3.89Z"/>
        </g>
        <path class="cls-43" d="M873.02,378.18c-269.6,233.1-522.08-50.77-259.17-291.35,269.59-233.1,522.07,50.77,259.17,291.35Z"/>
        <path class="cls-43" d="M307.8,384.68c-72.01-83.28,15.68-161.28,90-80.06,72.01,83.28-15.68,161.28-90,80.06Z"/>
        <path class="cls-43" d="M2020.74,245.77c-22.73-107.73,91.75-133.57,117.5-26.53,22.73,107.72-91.75,133.56-117.5,26.53Z"/>
      </g>
      <g>
        <path class="cls-23" d="M262.32,1518.05c187.55-360.09,363.01,185.18,698.53-257.49,94.01-131.07,661.13,1.7,787.31,161.77,53.01,67.24,181.32,5.73,201.73,93.13l-1687.58,2.59Z"/>
        <g>
          <path class="cls-29" d="M1388.5,1059.01c.17-8.89,7.06-24.06-6.56-38.47-9.65-10.35-18.16-21.97-22.23-27.66-1.47-2.31-17.96,11.25-17.6,11.8,2.71,4.02,15.15,24.49,16.95,35.9,1.97,12.86,24.01,26.94,24.01,26.94,0,0,5.37.33,5.42-8.51Z"/>
          <path class="cls-29" d="M1368.25,1004.33l-26.14.34c-28.23-42.6-98.82-180.95-29.6-251.12,18.2,42.01,21.67,72.12,26.05,161.47,0,0,18.19,62.63,29.69,89.31Z"/>
          <path class="cls-33" d="M1286.67,661.34s-2.82,7.63,1.34,10.63c4.16,6.11-22.38,26.56-12.71,45.9,0,0-.43-6.97,2.14-10.39-4.37,11.02,7.39,16.59,3.68,22.68,0,0,14.44.24,17.95-9.54,0,0-.85,4.65-1.9,6.36,0,0,14.1-4.93,17.77-14.61,3.67-9.68-3.2-21.01-7.48-22.53-4.28-1.53-11.24-13.09-9.96-16.23,1.28-3.13-10.83-12.26-10.83-12.26Z"/>
          <path class="cls-25" d="M1289.98,1483.27l-16.92,6.3c-1.92,2.07-105.68-159.96-80.12-237.46-12.37-71.02-28.7-164.06-42.08-235.18,1.11-.35,51.3-16.55,53.89-17.38l10.2-32.38,36.73-9.67c17.98,46.25,29.68,220.27,9.1,298.27-10.6,60.23,29.33,227.48,29.21,227.5Z"/>
          <path class="cls-25" d="M1270.73,1082.19l-79.76,158.57c-11.79-67.56-27.43-156.51-40.1-223.83,1.11-.35,51.3-16.55,53.89-17.38l10.2-32.38,43.88-13.05c-.57-1.24,6.46,77.24,11.9,128.06Z"/>
          <path class="cls-33" d="M1323.43,613.53l-79.66,64.49s-2.32-13.99-10.52-11.84c-12.79,3.35-32.41-30.94-17.31-61.94,22.53-54.37,101.87-41.2,107.49,9.29Z"/>
          <path class="cls-12" d="M1294.74,785.79c-62.3,27.62-102.4-12.76-103.08-66.31,12.73-4.07,18.88-2.13,29.2-1.31,6.51-3.4,18.19-19.91,24.95-47.52l2.29,1.06,38.38,18.04c-.37.84-13,40.67-9.71,45.35,3.03,1.23,4.84,2,4.84,2,.4,1.05,8.73,22.23,13.14,48.68Z"/>
          <path class="cls-20" d="M1308.04,820.69c-13.46,29.14-51.13,127.06-51.4,128.03,3.55,21.61-150.7,20.07-151.13.4-5.59-20.79,19.47-52.84,35.72-71.17,20.42-23.03,11.87-69.83,13.9-96.52,8.63-7.14,21.89-12.78,23.52-24.22,1.91-9.71-7.67-37.98-8.4-37.69,14.28-5.77,39.65-2.33,39.65-2.33-.09,9.72-.36,35.72,2.94,41.3,3.71,5.6,71.69,30.18,75.29,22.57,3.53-7.53-6.16-42.56-6.52-43.93,12.4,4.57,32.49,14.16,31.7,17.82-13.72,8.89,5.35,37.62-5.26,65.76Z"/>
          <path class="cls-14" d="M1286.48,689.77s-4.08,12.47-7.09,24.44c-22.43-6.26-29.24-29.84-31.29-42.48l38.38,18.04Z"/>
          <path class="cls-12" d="M1291.2,702.98s-53.67-12.42-45.42-45.72c8.25-33.3,6.88-57.33,41.49-50.81,34.61,6.52,38.1,20.87,38.05,32.66-.05,11.79-19.95,66.25-34.12,63.87Z"/>
          <path class="cls-33" d="M1328.34,620.2c-5.77-12.07-12.56-11.43-16.81-9.29-25.22-23.33-49.95-4.27-49.95-4.27-9.52,23-30.15,32.4-30.15,32.4,2.34,4.92,37.58,15.16,53.45.23-12.88,12.97-27.98,20.87-27.98,20.87,29.91-5.72,49.97-40.35,52.02-44.03,14.63,16.48,2.22,41.32,10.43,46,0,0,17.63-23.8,8.98-41.9Z"/>
          <path class="cls-36" d="M1342.94,1514.33h-85.22c-5.83-20.69,12.49-27.2,3.29-42.77,7.73,4.65,18.12,3.41,25.76-2.51,3.67,4.18,19.15,23.05,24.06,26.58,5.57,4,30.4,2.58,32.12,18.7Z"/>
          <path class="cls-39" d="M1190.83,896.9c-22.25-1.57-43.43-3.54-59.42-7.38,5.42-7.06,10.51-11.47,14.86-18.37,11.82-20.45,7.71-51.53,8.87-71.16,19.4-21.72,35.7-39.38,35.7-39.38,0,0,36.16,33.15,41.76,66.16,5.6,33.02,16.18,74.23-41.76,70.13Z"/>
          <path class="cls-45" d="M1199.79,716.32s26.26,31.12,20.63,77.81h10.88s6.16-32.65-21.4-76.95c-1.3-.33-8.94-.94-10.11-.86Z"/>
          <path class="cls-45" d="M1294.48,818.88l-10.57-2.61c14.2-37.53,3.31-69.68-.18-78.31,3.46,1.41,6.57,2.78,9.34,4.08,14.65,47.83,1.41,76.84,1.41,76.84Z"/>
          <path class="cls-45" d="M1299.07,800.01s-52.4-13.65-67.18-17.44c-42.08-10.38,22.15,71.56-85.63,88.59-41.09,44.39-55.25,91.36-52.01,134.21h0c.74,57.03,4.91,189.33,11.97,251.75-54.45,84.67-14.23,240.49-8.87,245.76l10.77-4.34c1.62-3.37,26.6-159.89,52.05-211.56,31.55-60.25,42.94-156.69,54.2-225.15.51-1.74,12.7-84.79,44.46-107.7,0,0,31.82-78.2,31.82-78.2,0,0,8.79-51.98,11.44-60.71,2.66-8.73-3.02-15.2-3.02-15.2Z"/>
          <g>
            <g>
              <path class="cls-2" d="M1221.24,790.16c-.09-5.91,9.2-5.91,9.11,0,.09,5.91-9.2,5.91-9.11,0Z"/>
              <path class="cls-25" d="M1222.06,790.16c-.09-5.91,9.19-5.91,9.11,0,.09,5.91-9.19,5.91-9.11,0Z"/>
            </g>
            <path class="cls-5" d="M1223.92,789.3c.25-.82,1.53-.41,1.26.4-.25.82-1.53.41-1.26-.4Z"/>
            <path class="cls-5" d="M1228.04,790.62c.25-.82,1.53-.41,1.26.4-.25.82-1.53.41-1.26-.4Z"/>
          </g>
          <g>
            <g>
              <path class="cls-2" d="M1286.88,804.94c-.09-5.91,9.2-5.91,9.11,0,.09,5.91-9.2,5.91-9.11,0Z"/>
              <path class="cls-25" d="M1287.7,804.94c-.09-5.91,9.2-5.91,9.11,0,.09,5.91-9.2,5.91-9.11,0Z"/>
            </g>
            <path class="cls-5" d="M1289.57,804.08c.25-.82,1.54-.41,1.26.4-.25.82-1.53.41-1.26-.4Z"/>
            <path class="cls-5" d="M1293.68,805.39c.25-.82,1.54-.41,1.26.4-.25.82-1.53.41-1.26-.4Z"/>
          </g>
          <path class="cls-33" d="M1214.92,645.4s-2.82,7.63,1.35,10.62c4.16,6.11-22.38,26.56-12.71,45.9,0,0-.43-6.97,2.14-10.39-4.37,11.02,7.39,16.59,3.68,22.68,0,0,14.44.24,17.95-9.53,0,0-.85,4.65-1.9,6.36,0,0,14.1-4.93,17.77-14.61,3.67-9.68-3.2-21.01-7.48-22.54-4.28-1.53-11.24-13.09-9.96-16.23,1.28-3.13-10.83-12.26-10.83-12.26Z"/>
          <path class="cls-20" d="M1321.6,776.69c-12.17,1.79-17.1,9.01-17.1,9.01.71.97-4.02-35.27,8.23-31.77.93,1.56,4.59,8.16,8.87,22.76Z"/>
          <g>
            <path class="cls-13" d="M1492,1060.77c-27.83.02-34.19-39.89-53.62-32.06,40.83,58.67,24.6,175.82-41.5,185.58-65.46,16.29-124.74-86.28-109.75-155.12-15.72,1.46-10.14,40.39-33.8,49.36-20.44,7.29-34.22-31.88-9.88-62.4,14.84-18.61,41.14-27.59,59.41-31.77,3.95-6.44,8.46-12.12,13.57-17.1-18.12-9.26-30.26-31.46-27.59-52.49-44.81-17.69-2.64-77.94,29.33-41.96,7.59-3.79,16.85-5.8,25.36-5.46,15.34-43.92,76.05-7.24,44.35,26.76,10.5,17.63,8.76,42.12-3.29,57.78,7.63,2.63,15.04,6.57,22.06,11.63,18.32-3.5,48.27-6.35,70.45,5.84,34.22,18.79,36.58,60.25,14.9,61.39Z"/>
            <path class="cls-28" d="M1289.83,1119.01c-4.74-20.03-5.56-41.26-2.71-59.68,22.71-20.38,14.66,43.47,31.51,53.48,10.13,7.33-15.2,7.42-28.8,6.2Z"/>
            <path class="cls-28" d="M1341.8,991.01c-5.14,1.9-16.1,5.31-25.92,6.81.18-.18.36-.37.55-.55-18.12-9.26-30.26-31.46-27.59-52.49-.05,0-.09-.03-.13-.04,7.06,4.16,21.18,45.23,53.09,40.84,0,0,7.61,2.59,0,5.42Z"/>
            <path class="cls-28" d="M1355.62,900.77c11.59-22.07,35.73-2.02,21.91,12.49,0,0-9.82-9.08-21.91-12.49Z"/>
            <path class="cls-28" d="M1308.03,908.21c-15.15-7.98-34.32,2.81-14.61,18.74,0,0,6.36-13.19,14.61-18.74Z"/>
          </g>
          <g>
            <path class="cls-12" d="M1313.99,979.65l-4.71,17.42c-37.02-14.31-92.79-33.27-123.94-60.42-27.18-29.66-69.56-199.42-13.11-217.71,24.24-.27,32.48,125.71,39.04,150.57,4.56,22.18,3.05,27.2,19.11,43.27,20.52,19.89,57.83,55.72,83.61,66.87Z"/>
            <path class="cls-20" d="M1193.68,752.84c-24.25-11.4-47.39,4.31-47.39,4.31,7.02-37.04,27.02-38.67,27.02-38.67,8.23-1.69,14.8,12.78,20.38,34.37Z"/>
            <path class="cls-12" d="M1302.81,975.76s10.04,4,15.75,5.01c5.71,1.02,14.52-1.82,21.76,2.9,8.56,6.18,17.41,8.47,10.3,11.63-2.19.62-13.29-6.4-13.77-4.53,1.14,6.66,22.64,5.98,23.8,13.21,0,2.83-12.94,9.53-20.49,9.06-7.55-.47-23.07-13.79-27-14.73-3.92-.94-20.45-7.54-20.45-7.54l10.09-15.01Z"/>
          </g>
          <path class="cls-36" d="M1159.96,1514.34h-85.22c-4.61-26.37,14.19-30.36,12.55-48.42,5.42,5.58,12.86,10.95,25.18,9.29,1.51,2.45,10.33,16.8,15.37,20.42,5.57,4,30.4,2.58,32.12,18.71Z"/>
        </g>
        <g id="man">
          <g>
            <path class="cls-38" d="M2041.29,1436.23c30.11,31.15,3.2,28.49-6.85,57.57-2.01,13.29-10.06,20.54-17.31,20.54h-34.55s-5.33-9.35,7.55-12.17c25.04-4.76,14.34-55.79,18.14-66.75l27.38-6.44,5.64,7.25Z"/>
            <path class="cls-38" d="M1835.55,1512.85c-3.13,2.89-87.83.96-93.73,1.49,2.62-19.64,49.08-8.79,59.84-41.54,2.54-22.51,36.78,3.58,37.11,4.22.8,7.75,3.3,32.02-3.22,35.84Z"/>
            <path class="cls-7" d="M1760.46,985.16c9.78,107.65,29.98,407.18,36.84,484.36,0,0,15.29,15.3,45.9,8.85,29.26-37.95,55.81-483.16,53.94-501.67l-136.68,8.45Z"/>
            <path class="cls-11" d="M1760.46,985.16s4.89,61.03,10.64,134.4l107.16,169.56c7.3-97.72,18.86-312.19,18.88-312.42l-136.68,8.45Z"/>
            <path class="cls-7" d="M1782.8,992.41c-8.67.03,189.49,427.39,222.25,457.79,0,0,33.22-13.29,36.24-22.35,0,0-22.17-200.54-61-249.43-42.36-52.31-53.75-177.03-56.77-225.87l-140.72,39.86Z"/>
          </g>
          <path class="cls-42" d="M1609.76,961.82s-31.11,14.93-35.3,18.77c-3.89,4.22-22.05,31.33-8.57,23.98,2.82-1.95,10.73-10.1,11.02-8.59.29,1.51-21.12,26.71-17.34,32.04,3.79,5.33,25.25,3.76,37.51-4.96,12.26-8.72,24.5-40.77,26.34-42.52,15.63-14.84-13.67-18.72-13.67-18.72Z"/>
          <path class="cls-39" d="M1608.36,977.82c-8.64-7.52-8.87-9.42-8.87-9.42,0,0,55.17-95.41,59.96-104.59,4.78-9.18,34.35-152.47,34.35-152.47l102.23-29.64c-38.97,92.41-72.62,236.47-173.21,303.2,0,0-7.68-1.19-14.47-7.09Z"/>
          <path class="cls-42" d="M1743.96,644.43s-35.98,63.3-71.14,71.56c0,0,1.46-21.26,10.03-35.81-5.96-6.36-22.9-29.63-22.31-29.62,4.83-12.99,15.28-41.08,20.03-53.85,13.66,30.7,56.2,49.17,63.39,47.72Z"/>
          <path class="cls-26" d="M1693.22,614.94s4.29,31.72-19.62,53.91c-8.85-11.34-13.06-18.29-13.06-18.29l11.93-32.08c12.8-3.9,20.75-3.54,20.75-3.54Z"/>
          <path class="cls-42" d="M1651.05,655.24s53.75-20.96,40.19-54.23c-13.56-33.27-15.76-58.39-50.66-46.42-34.89,11.97-36.34,27.37-34.52,39.58,1.83,12.21,30.65,65.66,44.99,61.07Z"/>
          <path class="cls-20" d="M1928.73,969.26c-21.68,31.17-183.81,72.82-181.88,51.25,1.36-9.34,1.39-39.33-1.74-57.26-1.97-69.03-91.97-176.39-73.32-251.21,33.88-15.67,47.01-76.44,47.01-76.44,0,0,.57.1,1.64.34,25.06-2.45,160.67,75.1,192.07,214.41,9.23,36.6,29.23,85.23,16.21,118.91Z"/>
          <path class="cls-6" d="M1698.96,539.2c.38-.74,1.47-1.54,4.14-2.36,0,0-2.5-.84-5.41-.2-1.51-3.68-5.18-9.95-12.06-10,0,0,3.94,1.03,5.4,4.98-18.49-17-151.26,19.67-90.59,62.03,8.71,2.67,24.76-14.5,39.19-16.84,14.43-2.35,22.24,17.76,27.74,19.42,5.5,1.67,2.37-2.91,8.13-7.49,5.76-4.58,9.07,6.2,8.95,13.76-.12,7.57,11.11,14.74,11.11,14.74l6.59-12.08c6.52-13.63,5.63-57.41-3.18-65.96Z"/>
          <path class="cls-39" d="M1932.82,941.12c-139.51-42.08-161.71-208.42-161.71-208.42,0,0,79.43,60.71,141.41,117.64,8.63,27.85,18.58,64.58,20.3,90.78Z"/>
          <path class="cls-42" d="M1971.07,946.58s-3.15,26.39-2.38,30.7c.76,4.31,5.79,17.12,7.04,17.19,8.83.51,2.86-5.64,4.23-7.09,1.1.44,1.42,10.4,6.45,10.14s19.84-5.84,19.24-17.41c-.6-11.57-16.38-32.77-16.75-34.69-3.19-16.29-17.82,1.15-17.82,1.15Z"/>
          <path class="cls-20" d="M1979.43,951.04c-11.07,5.07-15.18-.1-15.18-.1-76.81-129.63-55.88-116.79-197.07-176.04-38.17-12.15-80.61-59.43-21.64-98.58,18.92-11.27,42.85-9.61,60.24,3.89,139,101.58,152.37,127.58,187.34,260.04,0,0-5,6.81-13.69,10.8Z"/>
          <g>
            <path class="cls-7" d="M1702.29,1024.04l-29.02,28.99c-.46-.29-43.48-27.28-43.95-27.57,0,0,22.54,7.28,25.58,6.43,4.9-.58,40.04-16.2,47.38-7.85Z"/>
            <path class="cls-18" d="M1671.96,1060.9c-56.11-11.36-77.35-31.22-139.9-66.88,12.26-6.56,24.36-7.48,34.5-6.21,53.02,30.94,84.96,50.06,110.81,67.42-.39,2.11-1.54,6.38-5.41,5.66Z"/>
            <path class="cls-40" d="M1671.96,1060.9c-15.06-3.56-44.3-11.2-56.1-17.83-9.17-5.42-91.46-52.84-113.27-67.02-11.31-9.58-26.12-23.63-4.44-19.47,6.94-.78,12.99-.63,26.68,6.79,33.58,19.42,134.33,78.53,152.54,91.86-.39,2.11-1.54,6.38-5.41,5.66Z"/>
            <path class="cls-7" d="M1671.96,1060.9c-1.17-.25-4.62-1.07-9.32-2.27.61-5.36-3.14-9.63-3.14-9.63l17.69,7.16c-.44,1.78-1.77,5.49-5.23,4.74Z"/>
            <g class="cls-49">
              <g>
                <path class="cls-8" d="M1633.63,1038.11h0c-.72-.42.19-1.96.91-1.53h0c.72.42-.19,1.96-.91,1.53Z"/>
                <path class="cls-8" d="M1631.04,1036.58h0c-.72-.42.19-1.96.91-1.53h0c.72.42-.19,1.96-.91,1.53Z"/>
                <path class="cls-8" d="M1628.46,1035.06h0c-.72-.42.19-1.96.91-1.53h0c.72.42-.19,1.97-.91,1.53Z"/>
                <path class="cls-8" d="M1625.87,1033.53h0c-.72-.42.19-1.97.91-1.53h0c.72.42-.19,1.97-.91,1.53Z"/>
                <path class="cls-8" d="M1623.29,1032h0c-.72-.42.19-1.97.91-1.53h0c.72.42-.19,1.96-.91,1.53Z"/>
                <path class="cls-8" d="M1620.7,1030.47h0c-.72-.42.19-1.96.91-1.53h0c.72.42-.19,1.96-.91,1.53Z"/>
                <path class="cls-8" d="M1618.12,1028.94h0c-.72-.42.19-1.96.91-1.53h0c.72.42-.19,1.96-.91,1.53Z"/>
                <path class="cls-8" d="M1615.53,1027.42h0c-.72-.42.19-1.96.91-1.53h0c.72.42-.19,1.96-.91,1.53Z"/>
                <path class="cls-8" d="M1612.95,1025.89h0c-.72-.42.19-1.96.91-1.53h0c.72.42-.19,1.96-.91,1.53Z"/>
              </g>
              <g>
                <path class="cls-8" d="M1582.49,1007.88h0c-.72-.42.19-1.96.91-1.53h0c.72.42-.19,1.96-.91,1.53Z"/>
                <path class="cls-8" d="M1579.9,1006.36h0c-.72-.42.19-1.96.91-1.53h0c.72.42-.19,1.97-.91,1.53Z"/>
                <path class="cls-8" d="M1577.32,1004.83h0c-.72-.42.19-1.96.91-1.53h0c.72.42-.19,1.96-.91,1.53Z"/>
                <path class="cls-8" d="M1574.73,1003.3h0c-.72-.42.19-1.96.91-1.53h0c.72.42-.19,1.96-.91,1.53Z"/>
                <path class="cls-8" d="M1572.15,1001.77h0c-.72-.42.19-1.96.91-1.53h0c.72.42-.19,1.96-.91,1.53Z"/>
                <path class="cls-8" d="M1569.56,1000.24h0c-.72-.42.19-1.96.91-1.53h0c.72.42-.19,1.96-.91,1.53Z"/>
                <path class="cls-8" d="M1566.98,998.72h0c-.72-.42.19-1.96.91-1.53h0c.72.42-.19,1.96-.91,1.53Z"/>
                <path class="cls-8" d="M1564.39,997.19h0c-.72-.42.19-1.97.91-1.53h0c.72.42-.19,1.96-.91,1.53Z"/>
                <path class="cls-8" d="M1561.81,995.66h0c-.72-.42.19-1.97.91-1.53h0c.72.42-.19,1.96-.91,1.53Z"/>
              </g>
              <g>
                <path class="cls-8" d="M1551.8,989.75h0c-.72-.42.19-1.96.91-1.53h0c.72.42-.19,1.96-.91,1.53Z"/>
                <path class="cls-8" d="M1556.86,992.73h0c-.72-.42.19-1.96.91-1.53h0c.72.42-.19,1.96-.91,1.53Z"/>
                <path class="cls-8" d="M1549.22,988.22h0c-.72-.42.19-1.97.91-1.53h0c.72.42-.19,1.96-.91,1.53Z"/>
                <path class="cls-8" d="M1546.63,986.69h0c-.72-.42.19-1.96.91-1.53h0c.72.42-.19,1.97-.91,1.53Z"/>
                <path class="cls-8" d="M1544.05,985.16h0c-.72-.42.19-1.96.91-1.53h0c.72.42-.19,1.96-.91,1.53Z"/>
                <path class="cls-8" d="M1541.46,983.63h0c-.72-.42.19-1.96.91-1.53h0c.72.42-.19,1.97-.91,1.53Z"/>
                <path class="cls-8" d="M1538.88,982.11h0c-.73-.42.19-1.97.91-1.53h0c.72.42-.19,1.96-.91,1.53Z"/>
                <path class="cls-8" d="M1536.29,980.58h0c-.72-.42.19-1.96.91-1.53h0c.72.42-.19,1.97-.91,1.53Z"/>
                <path class="cls-8" d="M1533.71,979.05h0c-.72-.42.19-1.96.91-1.53h0c.72.42-.19,1.96-.91,1.53Z"/>
                <path class="cls-8" d="M1531.12,977.52h0c-.72-.42.19-1.97.91-1.53h0c.72.42-.19,1.96-.91,1.53Z"/>
                <path class="cls-8" d="M1528.59,976.02h0c-.72-.42.19-1.96.91-1.53h0c.72.42-.19,1.96-.91,1.53Z"/>
                <path class="cls-8" d="M1526,974.5h0c-.72-.42.19-1.96.91-1.53h0c.72.42-.19,1.96-.91,1.53Z"/>
                <path class="cls-8" d="M1523.42,972.97h0c-.72-.42.19-1.96.91-1.53h0c.72.42-.19,1.96-.91,1.53Z"/>
                <path class="cls-8" d="M1503.55,959.64c-.93,1.43-4.5-2.81-5.3-3.07.51-.08,1.35-.21,2.51-.28.49.67,3.82,2.17,2.79,3.35Z"/>
                <path class="cls-8" d="M1568.45,1002.63c-.8-.33-1.42-1.19-.91-2.03.75-.86,1.78-4.49,3.5-3.4.8.33,1.42,1.2.91,2.03-.75.86-1.78,4.49-3.5,3.4Z"/>
                <path class="cls-8" d="M1573.58,1005.67c-.8-.33-1.42-1.19-.91-2.03.75-.86,1.78-4.49,3.5-3.4.8.33,1.42,1.2.91,2.03-.75.86-1.78,4.49-3.5,3.4Z"/>
              </g>
              <g>
                <path class="cls-8" d="M1605.35,1021.4h0c-.72-.42.19-1.96.91-1.53h0c.72.42-.19,1.97-.91,1.53Z"/>
                <path class="cls-8" d="M1602.76,1019.87h0c-.72-.42.19-1.96.91-1.53h0c.72.42-.19,1.96-.91,1.53Z"/>
                <path class="cls-8" d="M1600.18,1018.34h0c-.72-.42.19-1.96.91-1.53h0c.72.42-.19,1.96-.91,1.53Z"/>
                <path class="cls-8" d="M1597.59,1016.81h0c-.72-.42.19-1.96.91-1.53h0c.72.42-.19,1.96-.91,1.53Z"/>
                <path class="cls-8" d="M1595.01,1015.28h0c-.72-.42.19-1.96.91-1.53h0c.72.42-.19,1.96-.91,1.53Z"/>
                <path class="cls-8" d="M1592.42,1013.76h0c-.72-.42.19-1.96.91-1.53h0c.72.42-.19,1.97-.91,1.53Z"/>
                <path class="cls-8" d="M1589.84,1012.23h0c-.72-.42.19-1.96.91-1.53h0c.72.42-.19,1.97-.91,1.53Z"/>
                <path class="cls-8" d="M1587.25,1010.7h0c-.72-.42.19-1.96.91-1.53h0c.72.42-.19,1.97-.91,1.53Z"/>
                <path class="cls-8" d="M1584.67,1009.17h0c-.72-.42.19-1.97.91-1.53h0c.72.42-.19,1.96-.91,1.53Z"/>
              </g>
            </g>
            <path class="cls-11" d="M1568.76,1016.41c5.15-.35.79-6.1-1.95-7.49-3.91-2.26-5.07,4.9-3.8,5.71.75.47,3.44,1.36,5.75,1.78Z"/>
            <path class="cls-11" d="M1568.37,1007.89l-4.81,8.14c-.72.92-19.1-8.03-20.15-11.49l5.04-8.53c5.94.13,19.01,11.13,19.26,11.12,0,0,.66.76.66.76Z"/>
            <path class="cls-4" d="M1550.23,996.23l-5.67,9.59c-.8-.8-1.15-1.29-1.15-1.29l5.04-8.53c.49-.06,1.09.03,1.78.22Z"/>
            <path class="cls-11" d="M1659.71,1047.56c.23-.09,16.85,3.67,25.89,10.28l-11.42-.17-14.67-8.67s-.97-1,.21-1.43Z"/>
            <g>
              <path class="cls-7" d="M1625.79,1014.47c-1.68.79-13.2,10.38-16.74,8.73,0,0-17.68-2.98-17.68-2.98,0,0-18.85-11.01-22.91-13.51-1.05-.53-2.57-2-1.89-2.32,2.46-.13,34.15,14.59,38.94,14.16,2.28-.19,18.53-6.35,20.29-4.08Z"/>
              <path class="cls-4" d="M1623.52,1013.75c-4.67,1.44-17.6,5.38-18.72,5.53-1.21.16-29.4-10.07-36.33-12.57-1.05-.53-2.57-2-1.89-2.32,2.41-.15,34.21,14.61,38.94,14.16l17.09-4.69c.25-.12.57-.14.92-.11Z"/>
              <path class="cls-4" d="M1625.79,1014.47s-10.28,7.08-12.07,8.04c-5.57,2.6-9.35-2.63-12.23-4.59,3.34,1.33,4.01.64,4.01.64,2.28-.19,18.53-6.35,20.29-4.08Z"/>
            </g>
            <path class="cls-40" d="M1673.67,1053.21l-44.35-27.75s22.9,7.47,25.98,6.64c2.91-.78,34.74-11.41,42.27-10.45-8.55,3.46-28.61,12.01-30,16.75-1.32,4.52,3.55,11.55,6.1,14.81Z"/>
          </g>
        </g>
        <g>
          <path class="cls-3" d="M608.65,513.58c-.09-2.45-1.99-28.86-42.21-30.24,0,0,19.78,2.36,23.2,11.05-21.32-17.13-38.43-4.34-41.91,21.7.8,10.02,7.01,33.98,21.42,28.44-21.41,26.96-9.75,76.21,8.69,71.23,8.71-2.28,11.18,12.59,11.18,12.59l84.66-68.54s-31.1-64.34-65.03-46.23Z"/>
          <path class="cls-20" d="M638.12,1484.19l-17.98,6.7c-2.04,2.19-112.32-170.01-85.15-252.38-13.15-75.48-30.51-174.37-44.72-249.95.26-.07,55.17-17.79,57.27-18.47l10.83-34.41,39.04-10.28c19.11,49.15,31.55,234.11,9.67,317-11.27,64.02,31.18,241.76,31.04,241.79Z"/>
          <path class="cls-39" d="M617.66,1057.91l-84.77,168.53c-12.53-71.81-29.15-166.34-42.62-237.89.26-.07,55.17-17.79,57.27-18.47l10.83-34.41,39.04-10.28s8.72,17.06,16.52,97.65c1.44,10.57,2.75,22.23,3.73,34.87Z"/>
          <path class="cls-20" d="M580.37,947.02l-1.96-16.83c-32.88,8.73-120.72-24.4-120.72-24.4,0,0-31.85,28-27.67,95.11,2.86,46.73,5.42,190.96,12.81,242.93-57.95,90.83-15.16,254.85-9.43,261.19l11.45-4.61c1.72-3.58,28.27-169.94,55.32-224.85,33.54-64.03,45.64-166.53,57.61-239.29,1.04.05,22.61-89.25,22.61-89.25Z"/>
          <path class="cls-32" d="M839.38,925.53c-7.31,6.17-26.08-15.38-28.71-18.51l5.72-15.92s24.63-.95,28.71,3.13c4.08,4.08,2.04,24.63-5.71,31.3Z"/>
          <path class="cls-32" d="M816.38,891.09l-2.45,16.47c-23.73-1.28-87.96-5.87-105.88-17.15-35.67-25.55-115.01-118.52-72.54-171.74,10.62-11.58,15.93-19,25.31-9.12v.14c26.96,35.03,45.57,114.7,66.28,137.31,5.38,8.54,76.19,39.2,89.27,44.09Z"/>
          <path class="cls-30" d="M643.17,742.9c-66.21,29.36-108.83-13.57-109.55-70.47,13.53-4.33,20.06-2.26,31.04-1.4,6.92-3.61,19.34-21.16,26.51-50.5l2.44,1.13,40.79,19.17c-.4.89-13.82,43.23-10.32,48.2,3.22,1.31,5.14,2.13,5.14,2.13.43,1.12,9.28,23.62,13.96,51.74Z"/>
          <path class="cls-7" d="M657.31,779.99c-15.19,31.05-41.94,160.6-42.23,161.91,3.77,22.96-172.57-4.51-173.02-25.41-6.56-26.24,27.17-61.68,43.31-82.85,14.82-27.31,7.53-75.51,9.42-95.39,9.17-7.59,23.27-13.58,25-25.73,2.04-10.32-8.14-40.36-8.93-40.05,15.17-6.14,42.14-2.48,42.14-2.48-.11,10.33-.39,37.97,3.11,43.88,3.95,5.96,76.2,32.08,80.02,23.99,3.75-8-6.53-45.24-6.93-46.69,24.19,9.5,32.84,17.47,32.84,17.47-14.58,9.46,6.53,41.45-4.74,71.35Z"/>
          <path class="cls-32" d="M634.4,640.85s-4.34,13.26-7.53,25.97c-23.84-6.65-31.08-31.71-33.26-45.14l40.79,19.17Z"/>
          <path class="cls-30" d="M639.42,654.89s-57.04-13.2-48.27-48.59c8.77-35.39,7.31-60.93,44.1-54,36.79,6.93,40.49,22.18,40.44,34.71-.05,12.53-21.2,70.41-36.26,67.89Z"/>
          <path class="cls-3" d="M678.89,566.9c-6.13-12.83-13.35-12.14-17.86-9.87-26.8-24.8-53.09-4.54-53.09-4.54-10.12,24.44-32.05,34.43-32.05,34.43,2.87,5.3,39.52,16.14,56.81.24-13.69,13.79-29.74,22.18-29.74,22.18,31.79-6.08,53.11-42.89,55.29-46.8,15.61,17.72,2.34,43.98,11.09,48.89,0,0,18.74-25.3,9.54-44.54Z"/>
          <path class="cls-7" d="M662.06,708.63s13.73,23.96,15.79,30.12c0,0-17.81-.69-25,13.01,0,0-1.72-39.91,9.21-43.13Z"/>
          <path class="cls-11" d="M567.61,898.98c-34.78-.37-64.23-36.48-82.23-65.35,14.82-27.31,7.53-75.51,9.42-95.39,6.62-4.96,14.65-10.07,19.79-15.47,28.48,48.14,100.17,176.71,53.01,176.21Z"/>
          <path class="cls-38" d="M499.93,1514.38h-90.57c-4.84-27.12,14.44-32.05,12.49-51.05,5.75,5.92,15.14,12.56,28.23,10.8,1.61,2.6,10.36,16.52,15.72,20.37,5.92,4.25,32.31,2.74,34.13,19.88Z"/>
          <path class="cls-38" d="M694.4,1514.38h-90.57c-6.09-22.94,13.17-27.1,1.91-45.12,8.26,3.97,20.31,3.99,28.73-1.87,3.9,4.45,20.59,23.36,25.81,27.11,5.92,4.25,32.31,2.74,34.13,19.88Z"/>
          <g>
            <polygon class="cls-31" points="772.75 845.97 684.63 960.6 691.79 965.62 781 850.98 772.75 845.97"/>
            <polygon class="cls-9" points="781 850.98 870.43 850.98 776.81 965.62 691.79 965.62 781 850.98"/>
            <polygon class="cls-22" points="772.75 845.97 861.6 845.97 866.61 850.98 781 850.98 772.75 845.97"/>
            <polygon class="cls-31" points="775.12 847.4 863.21 847.4 864.64 845.97 772.75 845.97 775.12 847.4"/>
          </g>
          <path class="cls-30" d="M762.6,920.55c-.25-4.56-6.26-4.35-10.83-4.37-7.5-.04-19.32-.55-26.16-3.17,0,0,21.84-.31,17.2-7.21-.85-1.26-11.7-.3-23.82-.3-4.97,0-17.26,6.81-16.62,7.13-8.78-1.16-16.77-2.86-19.35-3.42-29.09-17.09-70.82-36.8-91.56-60.33-6.04-10.56-13.32-31.59-18.25-46.16-10.53-24.12-38.2-134.32-62.35-130.3-55.72,30.23,21.17,199.84,55.01,225.36,21.79,14.13,55.15,21.26,81.63,28.04,26.82,6.08,38.71,6.99,67.95,17.92,24.72,8.45,44.02-6.04,47.16-23.17Z"/>
          <path class="cls-7" d="M537.35,704.03c-26.2-7.22-46.41,13.23-46.41,13.23.33-39.4,19.94-44.8,19.94-44.8,7.89-3.27,17.04,10.4,26.47,31.56Z"/>
        </g>
        <g>
          <g>
            <path class="cls-46" d="M1160.58,1186.27c-13.06-13.02,2.64-34.72-10.14-40.15-8.32,46.65-70.8,94.01-106.38,67.63-38.34-23.01-18.11-98.9,21.16-124.17-8.06-6.68-23.67,14.2-38.98,7.33-13.01-6.15-1.12-30.98,24.59-33.9,15.68-1.78,32.23,6.32,42.75,12.92,4.87-1.17,9.65-1.72,14.38-1.67-4.16-12.83.54-28.93,11.64-37.55-12.95-29.12,35.52-37.72,33.41-5.95,5.34,1.77,10.62,5.17,14.45,9.32,27.66-13.54,39.04,32.38,8.27,33.33-3.33,13.19-15.62,23.86-28.6,25.57,2.35,4.81,3.98,10.13,4.9,15.79,10.24,6.94,25.62,19.63,30.32,35.74,7.25,24.84-11.06,45.39-21.76,35.78Z"/>
            <path class="cls-1" d="M1038.45,1118.91c7.16-11.62,16.71-21.96,26.68-29.27,20.16,1.59-13.49,26.99-10.26,39.85,1.32,8.19-10.61-3.64-16.42-10.58Z"/>
            <path class="cls-1" d="M1122.78,1083.19c-3.3-1.51-10.04-5.05-15.35-8.94.17,0,.34,0,.51,0-4.16-12.83.54-28.93,11.64-37.55-.02-.03-.03-.05-.04-.08,1.37,5.25-11.24,31.14,5.78,44.03,0,0,2.36,4.78-2.54,2.54Z"/>
            <path class="cls-1" d="M1171.53,1047.33c15.6-4.95,17.87,15.68,4.43,16.12,0,0-.35-8.86-4.43-16.12Z"/>
            <path class="cls-1" d="M1145.72,1028.53c-3.37-10.84-17.42-14.76-15.63,1.95,0,0,9.16-3.21,15.63-1.95Z"/>
          </g>
          <g>
            <g>
              <path class="cls-40" d="M938.15,1127.48s-22.96-29.6-23.12-53.76c-.16-24.16.55-32.18,4.58-31.09,27.96,10.8,41.92,58.93,46.9,81.28.24,4.77-28.37,3.58-28.37,3.58Z"/>
              <path class="cls-44" d="M939.4,1118.02s-14.67-20.45-15.23-36.79c-.55-16.34-.28-21.74,2.22-20.93,17.13,7.31,27.36,41.94,30.37,55.84.24,3.23-17.36,1.88-17.36,1.88Z"/>
            </g>
            <g>
              <path class="cls-40" d="M975.2,1115.12s-11.01-40.1-6.66-51.01c4.35-10.92,26.9-3.63,29.46,4.07,2.56,7.7.98,40.19.98,40.19l-23.78,6.75Z"/>
              <path class="cls-44" d="M978.12,1069.02s-1.59,31.78,3.97,44.14l10.68-3.03s1.66-35.48.23-37.88c-1.42-2.4-14.88-3.23-14.88-3.23Z"/>
              <path class="cls-40" d="M967.91,1066.38s37.02,24.5,40.01,21.92c2.99-2.59-8.27-27.46-12.64-29.69-4.37-2.23-27.64-6.82-27.37,7.77Z"/>
            </g>
          </g>
          <g>
            <rect class="cls-20" x="899.81" y="1098.06" width="504.75" height="416.2"/>
            <rect class="cls-37" x="1152.19" y="1098.06" width="504.75" height="416.2"/>
            <polygon class="cls-39" points="1656.94 1098.06 1656.94 1383.54 1152.19 1514.26 1152.19 1098.06 1656.94 1098.06"/>
            <polygon class="cls-34" points="1152.19 1098.06 1252.06 1207.57 1750.14 1207.57 1656.94 1098.06 1152.19 1098.06"/>
            <polygon class="cls-48" points="900.11 1408.71 980.09 1408.71 973.04 1386.2 980.09 1370.12 900.11 1370.12 900.11 1408.71"/>
            <polygon class="cls-19" points="1657.05 1480.09 1577.07 1480.09 1584.11 1457.58 1577.07 1441.5 1657.05 1441.5 1657.05 1480.09"/>
            <polygon class="cls-39" points="1152.19 1145.11 1045.79 1251.5 900.11 1251.5 900.11 1098.06 1152.19 1098.06 1152.19 1145.11"/>
            <polygon class="cls-41" points="899.81 1098.06 786.33 1207.57 1038.87 1207.57 1152.19 1098.06 899.81 1098.06"/>
          </g>
          <g>
            <path class="cls-40" d="M1187.48,1341.78v-81.99c10.18.57,31.27-1.74,40.41,2.84,16.03,6.29,23.34,23.33,22.27,40.07.23,15.71-7.65,30.48-22.36,36.27-9.07,4.53-30.26,2.32-40.32,2.82ZM1204.37,1273.47v54.74c21.18,2.14,29.68-8,28.66-29.34.22-20.32-10.16-27.13-28.66-25.4Z"/>
            <path class="cls-40" d="M1329.78,1302.64c.66,56.42-74.4,52.09-69.83-3.61-.48-56.48,74.39-52.34,69.83,3.61ZM1312.66,1298.93c0-8.6-1.54-15.13-4.62-19.6-5.56-8.95-20.79-8.95-26.36,0-7.62,12.21-8.66,50.09,13.29,49.72,15.53-.22,18.09-15.89,17.68-30.13Z"/>
            <path class="cls-40" d="M1408.73,1341.78h-16.89l-32.89-53.95v53.95h-16.89v-81.99h16.89l32.94,54.06v-54.06h16.84v81.99Z"/>
            <path class="cls-40" d="M1470.79,1324.89h-29.62l-5.63,16.89h-17.96l30.52-81.99h15.66l30.69,81.99h-17.96l-5.69-16.89ZM1445.73,1311.2h20.5l-10.3-30.69-10.19,30.69Z"/>
            <path class="cls-40" d="M1557.06,1273.47h-25.12v68.31h-16.89v-68.31h-24.78v-13.68h66.79v13.68Z"/>
            <path class="cls-40" d="M1616.02,1306.25h-32.44v21.96h38.07v13.57h-54.96v-81.99h54.85v13.68h-37.96v19.54h32.44v13.23Z"/>
          </g>
        </g>
        <g>
          <g>
            <path class="cls-16" d="M775.19,1404.62c-13.81,4.33-29.34,2.05-32.87-14.2,0,0-13.52-69.59-13.52-69.59-1.93-9.94,3.86-19.66,13.15-22.91-1.19-3.87-2.22-9.99,3.17-10.99,8.06-2.3,10.33.19,11.13,8.13,10.07-.79,19.43,6.14,21.4,16.28l13.51,69.6c2.12,10.9-5.07,21.56-15.98,23.68Z"/>
            <rect class="cls-27" x="733.76" y="1319.6" width="49.76" height="48.72" transform="translate(-242.3 169.28) rotate(-10.99)"/>
            <path class="cls-27" d="M756.24,1294.96l-14.29,2.96c-1.19-3.87-2.22-9.99,3.17-10.99,7.99-2.27,10.3.12,11.13,8.03Z"/>
          </g>
          <g>
            <path class="cls-17" d="M1022.86,1277.4c-7.42,11.19-15.57,9.54-25.59,4.69-3.36-7.21-6.97-25.3,10.24-10.86,14.23.44,5.78-1.86,15.35,6.17Z"/>
            <path class="cls-17" d="M943.96,1338.85s21.39-51.83,59.89-52.82c0,0,35.54,3.95,37.52,52.82h-97.41Z"/>
            <path class="cls-40" d="M993.3,1287.62s15.43,3.43,20.19,1.42c0,0,.72-6.45-5.78-5.55-4.45.62-7.35-1.52-9.05-2.38-2.41-1.23-6,3.82-5.36,6.52Z"/>
            <path class="cls-15" d="M1006.73,1277.89c-.99.74-4.02-10.44-4.02-10.44,1.47,1.07,2.93,3.43,4.79,3.77,0,.33.19,5.94-.77,6.66Z"/>
            <path class="cls-15" d="M1020.98,1275.95c-9.77,5.79-10.69,6.28-3.06-3.62,1.03,1.59,2.14,2.78,3.06,3.62Z"/>
            <path class="cls-40" d="M964.85,1324.37c-.39-.34,15.14-22.87,19.42-23.04,4.28-.16,13.89,4.94,20.85,5.59,6.96.66,13.71-1.32,15.02,2.8,1.32,4.11,4.94,18.7,2.71,21.03-2.22,2.33-49.46.91-58-6.39Z"/>
          </g>
          <g>
            <path class="cls-40" d="M784.59,1359.41c-1.78,3.57-6.29,5.07-9.87,3.22,0,0-95.91-48.72-95.91-48.72-5.77-2.69-5.01-11.8,1.05-13.52,1.79-.58,3.8-.49,5.6.43l95.91,48.72c3.6,1.83,5.05,6.27,3.22,9.87Z"/>
            <polygon class="cls-47" points="710.6 1330.07 704.56 1310.52 689.11 1302.67 698.42 1323.88 710.6 1330.07"/>
            <polygon class="cls-47" points="734.03 1341.97 721.85 1335.78 712.54 1314.57 727.98 1322.42 734.03 1341.97"/>
            <polygon class="cls-47" points="757.43 1353.86 745.25 1347.67 735.94 1326.46 751.39 1334.31 757.43 1353.86"/>
            <path class="cls-47" d="M782.14,1362.18c-3.97,3.15-9.36-.54-13.05-2.4l-9.31-21.2,15.45,7.85,6.92,15.76Z"/>
            <path class="cls-47" d="M675.58,1304.04s-1.94-10.43-10.41-13.52c0,0,1,1.2-3.08,2.5-4.08,1.3-2.89,4.11-4.34,5.38,0,0,5.88,7.81,17.83,5.64Z"/>
            <path class="cls-8" d="M673.94,1305.41c-.76-.28-1.19-1.15-.81-1.89.62-.94,1.3-3.83,2.97-2.93.77.28,1.19,1.15.81,1.9-.62.94-1.3,3.83-2.97,2.93Z"/>
            <path class="cls-47" d="M784.19,1359.21s9.56-4.59,17.06.43c0,0-1.56-.09-.21,3.96,1.35,4.06-1.61,4.76-1.79,6.68,0,0-9.77-.14-15.07-11.07Z"/>
            <path class="cls-8" d="M784.16,1361.41c1.74,1.18,4.38-4,2.39-4.71-1.75-1.16-4.37,3.98-2.39,4.71Z"/>
          </g>
          <g>
            <path class="cls-40" d="M908.74,1360.17c-3.44,2.02-8.03.82-10.03-2.68,0,0-53.88-93.12-53.88-93.12-2.02-3.5-.82-8.01,2.68-10.03,3.49-2.02,8.01-.82,10.03,2.68,0,0,53.88,93.12,53.88,93.12,2.02,3.5.82,8.01-2.68,10.03Z"/>
            <polygon class="cls-27" points="862.7 1295.25 868.28 1275.56 859.6 1260.57 855.85 1283.42 862.7 1295.25"/>
            <polygon class="cls-27" points="875.85 1317.99 869.01 1306.16 872.76 1283.31 881.43 1298.31 875.85 1317.99"/>
            <polygon class="cls-27" points="889 1340.71 882.15 1328.88 885.9 1306.03 894.58 1321.03 889 1340.71"/>
            <path class="cls-15" d="M905.18,1361.15c-5.04.48-7.56-5.55-9.63-9.13l3.75-22.85,8.67,15-2.79,16.98Z"/>
            <path class="cls-40" d="M847.51,1254.34s4.06-9.8-1.36-17.01c0,0,.18,1.55-3.94.42-4.12-1.13-4.66,1.87-6.57,2.15,0,0,.67,9.75,11.88,14.44Z"/>
            <path class="cls-27" d="M845.38,1254.6c-.49-.65-.38-1.61.36-2.03,1.03-.45,3.18-2.5,4.09-.84.49.65.38,1.61-.36,2.03-1.03.45-3.18,2.5-4.09.84Z"/>
            <path class="cls-48" d="M908.52,1359.78s10.52,1.37,14.07,9.66c0,0-1.26-.93-2.33,3.21-1.07,4.14-3.95,3.11-5.14,4.63,0,0-8.12-5.44-6.6-17.49Z"/>
            <path class="cls-35" d="M907.23,1361.49c.32.75,1.21,1.13,1.94.7.91-.67,3.75-1.51,2.76-3.13-.32-.75-1.21-1.13-1.94-.7-.91.67-3.75,1.51-2.76,3.13Z"/>
          </g>
          <g>
            <path class="cls-8" d="M734.38,1386.29c-3.54-1.84-4.96-6.37-3.06-9.92,0,0,50.26-95.12,50.26-95.12,2.78-5.73,11.87-4.82,13.5,1.27.56,1.8.43,3.81-.52,5.59l-50.26,95.12c-1.89,3.57-6.35,4.95-9.92,3.06Z"/>
            <polygon class="cls-9" points="764.92 1312.79 784.56 1307.06 792.66 1291.74 771.3 1300.71 764.92 1312.79"/>
            <polygon class="cls-9" points="752.64 1336.02 759.03 1323.94 780.38 1314.97 772.28 1330.29 752.64 1336.02"/>
            <polygon class="cls-9" points="740.38 1359.23 746.77 1347.14 768.12 1338.18 760.02 1353.5 740.38 1359.23"/>
            <path class="cls-9" d="M731.66,1383.8c-3.08-4.02.69-9.35,2.61-13.01l21.35-8.97-8.09,15.32-15.87,6.66Z"/>
            <path class="cls-9" d="M791.51,1278.19s10.46-1.77,13.69-10.19c0,0-1.22.98-2.45-3.12-1.23-4.09-4.06-2.96-5.31-4.43,0,0-7.9,5.75-5.93,17.73Z"/>
            <path class="cls-8" d="M790.22,1276.41h0c.76-1.97,5.87.73,4.67,2.47-.76,1.97-5.87-.73-4.67-2.47Z"/>
            <path class="cls-8" d="M734.6,1385.89s4.43,9.63-.7,17.05c0,0,.12-1.56-3.96-.27-4.08,1.29-4.73-1.69-6.65-1.89,0,0,.3-9.77,11.31-14.89Z"/>
            <path class="cls-8" d="M732.46,1385.72c-.47.67-.31,1.62.43,2.01,1.05.41,3.27,2.38,4.12.68.46-.67.31-1.62-.43-2.01-1.05-.41-3.27-2.38-4.12-.68Z"/>
          </g>
          <g>
            <path class="cls-47" d="M834.81,1299.83c5.22,8.05,11.46,6.94,18.57,3.4,2.49-5.19,4.93-18.36-7.43-7.88-9.91.22-4.55-1.12-11.14,4.48Z"/>
            <path class="cls-47" d="M892.07,1344.44s-15.52-37.62-43.47-38.33c0,0-25.79,2.87-27.23,38.33h70.69Z"/>
            <path class="cls-22" d="M856.25,1307.25s-11.2,2.49-14.66,1.03c0,0-.52-4.68,4.19-4.03,3.23.45,5.33-1.1,6.57-1.73,1.75-.89,4.36,2.77,3.89,4.73Z"/>
            <path class="cls-31" d="M846.51,1300.19c.72.54,2.92-7.57,2.92-7.57-1.07.77-2.12,2.49-3.47,2.74,0,.24-.14,4.31.56,4.84Z"/>
            <path class="cls-31" d="M836.17,1298.79c7.01,4.18,7.74,4.5,2.22-2.63-.75,1.15-1.55,2.02-2.22,2.63Z"/>
            <path class="cls-40" d="M876.9,1333.93c.29-.25-10.99-16.6-14.09-16.72-3.11-.12-10.08,3.58-15.13,4.06-5.05.48-9.95-.96-10.9,2.03-.96,2.99-3.58,13.57-1.97,15.26,1.61,1.69,35.9.66,42.09-4.64Z"/>
          </g>
          <g>
            <path class="cls-16" d="M946.11,1301.84h0c-4.62.06-6.94-6.92-6.94-6.92l-45.02,13.63c3.42,12.9-8.71,6.65-6.61,21.93,0,0,9.96,32.91,9.96,32.91,1.77,5.83,7.98,9.16,13.81,7.39l47.49-14.38c5.83-1.76,9.16-7.98,7.39-13.81,0,0-9.96-32.91-9.96-32.91-1.39-4.6-5.56-7.63-10.13-7.84Z"/>
            <g>
              <path class="cls-40" d="M889.65,1307.09l2.7,8.93c.98,3.23,13.31,2.35,27.54-1.96,14.23-4.31,24.98-10.42,24-13.65l-2.71-8.93-51.54,15.6Z"/>
              <path class="cls-47" d="M941.19,1291.49c3.31,7.2-50.3,23.42-51.54,15.6-3.31-7.2,50.3-23.42,51.54-15.6Z"/>
            </g>
          </g>
          <g>
            <path class="cls-27" d="M825.32,1319.72h0c-3.23-1.56-2.42-7.21-2.42-7.21l-35.99-6.16c-2.31,10.4-8.06,1.31-12.2,12.94,0,0-4.5,26.31-4.5,26.31-.8,4.66,2.36,9.13,7.03,9.92l37.96,6.49c4.66.8,9.13-2.36,9.92-7.03l4.5-26.31c.63-3.68-1.21-7.23-4.31-8.96Z"/>
            <g>
              <path class="cls-21" d="M784.3,1303.78l-1.22,7.14c-.44,2.58,8.42,6.25,19.8,8.2,11.38,1.95,20.96,1.43,21.4-1.15l1.22-7.14-41.2-7.05Z"/>
              <path class="cls-40" d="M825.5,1310.82c-.2,6.15-43.05-1.19-41.2-7.05.2-6.14,43.05,1.19,41.2,7.05Z"/>
            </g>
          </g>
          <g>
            <rect class="cls-11" x="710.63" y="1330.4" width="222.98" height="183.86"/>
            <rect class="cls-11" x="822.12" y="1330.4" width="222.98" height="183.86"/>
            <polygon class="cls-7" points="822.12 1330.4 1045.68 1330.4 1045.68 1456.36 822.12 1514.26 822.12 1330.4"/>
            <polygon class="cls-11" points="822.12 1330.4 866.25 1378.77 1086.28 1378.77 1045.11 1330.4 822.12 1330.4"/>
            <polygon class="cls-24" points="710.77 1467.63 746.1 1467.63 742.99 1457.69 746.1 1450.58 710.77 1450.58 710.77 1467.63"/>
            <polygon class="cls-10" points="822.12 1351.18 775.12 1398.18 710.77 1398.18 710.77 1330.4 822.12 1330.4 822.12 1351.18"/>
            <polygon class="cls-11" points="710.63 1330.4 660.5 1378.77 772.06 1378.77 822.12 1330.4 710.63 1330.4"/>
          </g>
          <g>
            <path class="cls-40" d="M837.71,1438.06v-36.22c13.38-.95,27.6.43,27.69,17.32.7,18.03-13.21,19.96-27.69,18.91ZM845.18,1407.89v24.18c8.99,1.16,13.34-3.88,12.66-12.96.46-8.52-4.99-12.22-12.66-11.22Z"/>
            <path class="cls-40" d="M900.58,1420.77c.67,24.79-33.26,22.77-30.85-1.59-.6-24.82,33.26-22.88,30.85,1.59ZM893.02,1419.13c.63-16.96-17.95-14.36-15.72,1.64-.68,16.65,17.89,14.77,15.72-1.64Z"/>
            <path class="cls-40" d="M935.46,1438.06h-7.46l-14.53-23.83v23.83h-7.46v-36.22h7.46l14.55,23.88v-23.88h7.44v36.22Z"/>
            <path class="cls-40" d="M962.87,1430.6h-13.09l-2.49,7.46h-7.94l13.48-36.22h6.92l13.56,36.22h-7.94l-2.51-7.46ZM951.8,1424.56h9.06l-4.55-13.56-4.5,13.56Z"/>
            <path class="cls-22" d="M1000.98,1407.89h-11.1v30.18h-7.46v-30.18h-10.95v-6.04h29.5v6.04Z"/>
            <path class="cls-40" d="M1027.03,1422.37h-14.33v9.7h16.82v5.99h-24.28v-36.22h24.23v6.04h-16.77v8.63h14.33v5.84Z"/>
          </g>
        </g>
        <path class="cls-23" d="M393.77,1477.86s-44.69-227.74-120.83-218.39c-76.15,9.35,120.83,218.39,120.83,218.39Z"/>
        <path class="cls-23" d="M360.61,1467.3s-70.38-83.97-132.94-59c-62.56,24.97,88.63,18.74,132.94,59Z"/>
        <path class="cls-23" d="M1672.56,1381.69s27.96-154.93,52.07-128.15c24.1,26.78-52.07,128.15-52.07,128.15Z"/>
        <path class="cls-23" d="M1682.8,1395.02s48.07-76.32,65.03-51.32c16.96,24.99-65.03,51.32-65.03,51.32Z"/>
      </g>
    </g>
  </g>
</svg>