<?xml version="1.0" encoding="UTF-8"?>
<svg id="Camada_2" data-name="Camada 2" xmlns="http://www.w3.org/2000/svg" viewBox="0 0 174.22 98.73">
  <defs>
    <style>
      .cls-1 {
        fill: #fff;
        stroke-width: 0px;
      }
    </style>
  </defs>
  <g id="Camada_2-2" data-name="Camada 2">
    <g>
      <polygon class="cls-1" points="133.94 35.16 133.94 5.49 127.57 5.49 125.97 18.82 125.87 18.82 124.36 5.49 117.99 5.49 117.99 35.16 122.15 35.16 122.15 18.69 122.25 18.69 124.16 35.16 127.72 35.16 129.73 18.69 129.83 18.69 129.83 35.16 133.94 35.16"/>
      <path class="cls-1" d="M141,21.25h1.5v13.92h4.97V9.53c0-.79-.15-1.48-.45-2.06-.3-.58-.69-1.05-1.18-1.42-.49-.37-1.05-.64-1.68-.81s-1.27-.25-1.91-.25h-1c-.67,0-1.31.08-1.93.25s-1.17.44-1.66.81c-.49.37-.88.84-1.18,1.42s-.45,1.27-.45,2.06v25.63h4.97v-13.92ZM141,10.17c0-1.1.23-1.66.7-1.66h.1c.47,0,.7.55.7,1.66v7.94h-1.51v-7.94Z"/>
      <path class="cls-1" d="M139.8,2.53c.23-.07.48-.11.75-.11.47,0,.94.11,1.43.34.48.23,1.04.34,1.68.34.47,0,.94-.12,1.43-.36.48-.24.96-.71,1.43-1.42l-2.26-1.19c-.27.23-.49.38-.68.47-.18.08-.38.13-.58.13-.64,0-1.2-.12-1.71-.36-.5-.24-1.05-.36-1.66-.36-.43,0-.9.14-1.38.42-.49.28-.91.75-1.28,1.4l2.06,1.15c.27-.23.52-.37.75-.45Z"/>
      <path class="cls-1" d="M151.09,34.36c.49.37,1.04.64,1.66.81s1.26.25,1.93.25h0s1,0,1,0c.63,0,1.27-.08,1.91-.25.63-.17,1.2-.44,1.68-.81.48-.37.88-.84,1.18-1.42.3-.58.45-1.27.45-2.06V9.78c0-.79-.15-1.48-.45-2.06-.3-.58-.69-1.05-1.18-1.42-.49-.37-1.05-.64-1.68-.81-.64-.17-1.27-.25-1.91-.25h-1c-.67,0-1.31.08-1.93.25-.62.17-1.17.44-1.66.81-.48.37-.88.84-1.18,1.42-.3.58-.45,1.27-.45,2.06v21.1c0,.79.15,1.48.45,2.06.3.58.69,1.05,1.18,1.42ZM154.42,10.41c0-1.1.23-1.66.7-1.66h0s.1,0,.1,0c.47,0,.7.55.7,1.66v19.82c0,.59-.05,1.02-.15,1.27-.1.25-.29.38-.55.38h-.1c-.27,0-.45-.13-.55-.38-.1-.25-.15-.68-.15-1.27V10.41Z"/>
      <path class="cls-1" d="M164.24,34.36c.5.37,1.07.64,1.71.81.63.17,1.29.25,1.96.25h.85c.67,0,1.32-.08,1.96-.25.64-.17,1.2-.44,1.68-.81.48-.37.87-.84,1.15-1.42.28-.58.43-1.27.43-2.06v-4.46c0-.96-.16-1.82-.48-2.57-.32-.75-.72-1.44-1.2-2.08-.49-.64-1-1.24-1.56-1.8-.55-.57-1.07-1.17-1.56-1.8-.17-.22-.32-.44-.46-.67h0c-.28-.45-.53-.91-.74-1.39-.32-.74-.48-1.58-.48-2.55v-3.14c0-.62.05-1.05.15-1.29.1-.24.28-.36.55-.36h.1c.27,0,.45.12.55.36.1.24.15.66.15,1.25v4.67h4.52v-5.27c0-.79-.15-1.48-.45-2.06-.3-.58-.69-1.05-1.18-1.42-.49-.37-1.04-.64-1.66-.81-.62-.17-1.26-.25-1.93-.25h-.5c-.67,0-1.31.08-1.93.25-.62.17-1.18.44-1.68.81-.5.37-.9.84-1.2,1.42-.3.58-.45,1.27-.45,2.06v4.46c0,.99.16,1.85.48,2.59.32.74.72,1.42,1.2,2.06.48.64,1,1.24,1.56,1.8.55.57,1.07,1.16,1.56,1.78.48.62.89,1.3,1.2,2.04.32.74.48,1.58.48,2.55v3.18c0,.59-.08,1.02-.23,1.27-.15.25-.38.38-.68.38h-.1c-.3,0-.54-.13-.7-.38-.17-.25-.25-.68-.25-1.27v-5.6h-4.52v6.24c0,.79.16,1.48.48,2.06.32.58.73,1.05,1.23,1.42Z"/>
      <path class="cls-1" d="M144.34,36.53h-1c-.67,0-1.31.08-1.93.23-.62.15-1.17.39-1.66.73-.49.33-.88.76-1.18,1.28-.3.52-.45,1.14-.45,1.85v18.96c0,.71.15,1.33.45,1.85.3.52.69.95,1.18,1.28.39.26.82.47,1.29.62h-2.92v3.14h11.44v-3.14h-2.94c.48-.15.92-.35,1.31-.62.48-.33.88-.76,1.18-1.28.3-.52.45-1.14.45-1.85v-18.96c0-.71-.15-1.33-.45-1.85-.3-.52-.69-.95-1.18-1.28-.49-.33-1.05-.57-1.68-.73-.64-.15-1.27-.23-1.91-.23ZM144.59,58.99c0,.53-.05.92-.15,1.14-.1.23-.29.34-.55.34h-.1c-.27,0-.45-.12-.55-.34-.1-.23-.15-.61-.15-1.14v-17.81c0-.99.23-1.49.7-1.49h.1c.47,0,.7.5.7,1.49v17.81Z"/>
      <path class="cls-1" d="M159.7,66.45c.63-.17,1.19-.44,1.67-.81.48-.37.87-.84,1.17-1.42s.45-1.27.45-2.06v-25.39h-4.97v24.75c0,.59-.04,1.02-.12,1.27-.08.25-.26.38-.53.38h-.15c-.27,0-.45-.13-.55-.38s-.15-.68-.15-1.27v-24.75h-4.97v25.39c0,.79.15,1.48.45,2.06.3.58.7,1.05,1.21,1.42.5.37,1.07.64,1.71.81.63.17,1.27.25,1.91.25h.95c.66,0,1.31-.08,1.94-.25Z"/>
      <polygon class="cls-1" points="174.22 52.78 174.22 49.64 170.05 49.64 170.05 40.3 174.22 40.3 174.22 36.78 165.08 36.78 165.08 66.45 174.22 66.45 174.22 62.93 170.05 62.93 170.05 52.78 174.22 52.78"/>
      <path class="cls-1" d="M101.04,68.88c-.49-.37-1.05-.64-1.68-.81-.64-.17-1.27-.25-1.91-.25h-1c-.67,0-1.31.08-1.93.25s-1.17.44-1.66.81c-.49.37-.88.84-1.18,1.42-.3.58-.45,1.27-.45,2.06v25.63h4.97v-13.92h1.5v13.92h4.97v-25.63c0-.79-.15-1.48-.45-2.06-.3-.58-.7-1.05-1.18-1.42ZM97.71,80.93h-1.5v-7.94c0-1.1.23-1.66.7-1.66h.1c.47,0,.7.55.7,1.66v7.94Z"/>
      <path class="cls-1" d="M110.06,92.82c0,.59-.05,1.02-.15,1.27s-.28.38-.55.38h-.1c-.27,0-.45-.13-.55-.38-.1-.25-.15-.68-.15-1.27v-5.6h-4.97v6.24c0,.79.15,1.48.45,2.06s.7,1.05,1.2,1.42c.5.37,1.06.64,1.68.81.62.17,1.25.25,1.88.25h1c.67,0,1.31-.08,1.93-.25.62-.17,1.17-.44,1.66-.81.48-.37.88-.84,1.18-1.42.3-.58.45-1.27.45-2.06v-25.39h-4.97v24.75Z"/>
      <path class="cls-1" d="M123.48,92.82c0,.59-.04,1.02-.12,1.27-.08.25-.26.38-.53.38h-.15c-.27,0-.45-.13-.55-.38s-.15-.68-.15-1.27v-24.75h-4.97v25.39c0,.79.15,1.48.45,2.06.3.58.7,1.05,1.21,1.42.5.37,1.07.64,1.71.81.63.17,1.27.25,1.91.25h.95c.66,0,1.31-.08,1.94-.25.63-.17,1.19-.44,1.67-.81.48-.37.87-.84,1.17-1.42s.45-1.27.45-2.06v-25.39h-4.97v24.75Z"/>
      <path class="cls-1" d="M140.36,69.13c-.5-.37-1.06-.64-1.69-.81s-1.26-.25-1.89-.25h-6.22v29.67h6.22c.63,0,1.26-.08,1.89-.25s1.19-.44,1.69-.81c.5-.37.89-.83,1.19-1.4.3-.57.45-1.25.45-2.04v-20.67c0-.79-.15-1.47-.45-2.04s-.7-1.03-1.19-1.4ZM137.03,92.56c0,.59-.04,1.02-.13,1.27-.08.25-.26.38-.53.38h-.85v-22.63h.85c.43,0,.65.55.65,1.66v19.32Z"/>
      <path class="cls-1" d="M153.79,68.88c-.49-.37-1.05-.64-1.68-.81-.64-.17-1.27-.25-1.91-.25h-1c-.67,0-1.31.08-1.93.25s-1.17.44-1.66.81c-.49.37-.88.84-1.18,1.42-.3.58-.45,1.27-.45,2.06v25.63h4.97v-13.92h1.5v13.92h4.97v-25.63c0-.79-.15-1.48-.45-2.06-.3-.58-.7-1.05-1.18-1.42ZM150.45,80.93h-1.5v-7.94c0-1.1.23-1.66.7-1.66h.1c.47,0,.7.55.7,1.66v7.94Z"/>
      <polygon class="cls-1" points="165.5 81.4 165.4 81.4 163.9 68.07 157.53 68.07 157.53 97.74 161.69 97.74 161.69 81.27 161.79 81.27 163.7 97.74 167.26 97.74 169.27 81.27 169.37 81.27 169.37 97.74 173.48 97.74 173.48 68.07 167.11 68.07 165.5 81.4"/>
      <path class="cls-1" d="M56.22,58.86c-1.25-.13-2.51-.21-3.71-.52-10.25-2.6-16.72-9.06-18.81-19.43-1.97-9.76,2.33-19.25,10.33-24.67,2.5-1.69,5.25-2.85,8.19-3.55.27-.07.51-.21.77-.31-.19-.22-.37-.43-.56-.64-.02-.03-.06-.05-.09-.08-5.28-4.4-11.36-6.91-18.19-7.42-8.81-.66-16.7,1.77-23.55,7.43C1.24,17.37-2.38,30.12,1.59,41.48c1.62,4.61,4.21,8.6,7.83,11.86,2.31,2.08,5.3,1,6.03-1.46.43-1.44.93-2.85,1.29-4.3.82-3.38,1.25-6.81.58-10.27-.68-3.55-2.66-6.04-6.11-7.27-.35-.12-.71-.22-1.07-.33-.34-.1-.83-.04-.68-.64.16-.64.64-.43,1-.31.9.31,1.82.6,2.66,1.04.53.28.8.19,1.15-.21,1.35-1.54,2.59-3.15,3.38-5.06.56-1.38.92-2.78.28-4.23-.18-.41-.06-.65.3-.8.48-.21.6.2.65.5.14.89.37,1.81.29,2.69-.17,1.92-1.09,3.57-2.18,5.11-.6.85-1.29,1.63-1.95,2.44-.22.26-.45.47-.06.82,2.76,2.5,3.6,5.76,3.63,9.35.04,4.1-.89,8-2.23,11.83-.19.54-.4,1.11-.42,1.68-.05,1.58-.03,3.17-.01,4.75.01.91.31,1.7.99,2.35.63.6,1.2,1.27,1.8,1.9,1.81,1.9,3.61,3.8,5.43,5.69,1.22,1.26,2.71,1.38,3.91.37.78-.66.88-1.54.88-2.49-.02-7.24-.02-14.49,0-21.74,0-.44-.29-1.19.42-1.23.89-.05.53.78.53,1.23.03,4.67.02,9.33.02,14h-.01c0,4.67.02,9.34-.01,14,0,1.33.39,2.4,1.38,3.33,1.21,1.14,2.31,2.4,3.46,3.6,1.21,1.27,2.42,2.53,3.64,3.78.79.8,1.76.96,2.77.6,1.02-.37,1.63-1.14,1.72-2.25.05-.67.05-1.33.05-2v-19.87c0-.38-.01-.76.06-1.12.03-.14.28-.32.43-.32s.4.18.43.32c.07.36.06.75.06,1.12v15c0,4.12.02,8.25-.01,12.37,0,1.31.32,2.41,1.32,3.35,1.13,1.04,2.14,2.22,3.2,3.33,1.24,1.3,2.45,2.62,3.73,3.87,1.56,1.53,3.79.97,4.46-1.1.18-.55.24-1.15.24-1.72.01-11.5,0-22.99,0-34.49,0-.33-.02-.67,0-1,.02-.45-.14-.64-.63-.69Z"/>
      <path class="cls-1" d="M107.05,51.82c8.99-9.44,10.52-23.99,3.5-34.95-5.92-9.24-14.57-14.03-25.46-14.67-8.22-.48-15.6,1.94-22.07,7.08-.38.31-.73.67-1.09,1.01.5.16.99.31,1.49.47.04.01.08.03.12.04,11.98,2.97,19.98,14.51,18.27,26.73-1.36,9.71-6.79,16.31-15.89,19.9-2.26.89-4.64,1.26-7.06,1.44-.92.07-.92.06-.94,1.01v17.37h-.04c0,5.5-.02,11,.02,16.5.01,1.03.16,2.07.38,3.08.23,1.03.97,1.64,2,1.83,1.03.19,1.86-.16,2.58-.92,2.14-2.27,4.25-4.58,6.49-6.75,1.19-1.14,1.58-2.38,1.58-3.99-.05-9-.02-17.99-.02-26.99,0-.37-.02-.76.04-1.12.03-.15.28-.39.39-.37.19.03.47.21.51.37.09.36.05.75.05,1.12v19.74c0,.71.02,1.42.11,2.12.21,1.64,1.66,2.7,3.23,2.26.63-.18,1.24-.66,1.72-1.15,2.18-2.23,4.28-4.55,6.49-6.75,1.05-1.05,1.47-2.17,1.47-3.66-.05-9.2-.02-18.41-.02-27.61,0-.38-.01-.76.06-1.12.02-.14.27-.33.42-.33s.41.17.44.31c.07.37.06.75.06,1.12v20.99c0,.33-.02.67,0,1,.09,1.23.62,2.13,1.84,2.56,1.18.41,2.12.02,2.93-.82,2.45-2.56,4.88-5.13,7.33-7.68.61-.63.92-1.35.91-2.24-.02-1.29.06-2.58-.02-3.87-.06-.98-.19-1.99-.5-2.92-1.29-3.94-2.25-7.93-2.1-12.11.13-3.36,1-6.41,3.6-8.74.34-.31.29-.53.03-.82-.25-.28-.5-.55-.74-.84-1.38-1.68-2.6-3.46-3.21-5.59-.36-1.26-.46-2.54.04-3.79.1-.24.44-.59.61-.56.43.07.54.41.36.86-.55,1.36-.29,2.69.23,4,.78,1.96,2.06,3.59,3.41,5.19.42.5.75.49,1.25.18.38-.24.82-.4,1.25-.55.59-.2,1.19-.4,1.8-.5.17-.03.45.24.57.44.05.08-.19.42-.36.5-.34.16-.73.19-1.08.31-3.11,1.02-5.24,3.04-6.12,6.21-.36,1.31-.54,2.7-.59,4.06-.17,4.19.89,8.16,2.32,12.05.19.52.61,1.01,1.04,1.36,1.48,1.18,3.37,1.07,4.78-.21.55-.51,1.07-1.05,1.59-1.59Z"/>
      <path class="cls-1" d="M81.04,34.56c.03-13.54-11.21-23.63-23.38-23.42h0c-12.13-.23-23.36,9.81-23.39,23.28-.03,12.85,10.43,23.4,23.12,23.47,12.98.08,23.62-10.38,23.65-23.33ZM46.04,16.95l.02.02s-.01,0-.02,0v-.03ZM51.74,38.46c.13,4.5.5,8.97,1.06,13.43.11.87.25,1.73.34,2.6,0,.13-.27.43-.36.41-.81-.18-1.63-.35-2.39-.67-.29-.13-.48-.63-.6-1-1.33-4.27-2.16-8.63-2.35-13.1-.08-1.91-.09-3.83-.14-5.74,0-.17-.08-.34-.13-.51-.03.16-.07.32-.08.49-.11,3.16-.31,6.31-.3,9.47,0,3.01.7,5.94,1.54,8.82.06.22.06.46.08.7-.23-.06-.46-.1-.68-.19-1.07-.44-1.83-1.16-2.42-2.2-2.15-3.79-3.94-7.7-4.62-12.04-.22-1.44-.33-2.89-.48-4.34-.02-.17-.03-.33-.04-.5-.02.17-.03.33-.05.5-.45,4.91.58,9.51,2.96,13.81.34.62.73,1.21,1.08,1.83.15.27.24.57.35.86-.27-.18-.56-.33-.81-.53-2.47-2.01-4.37-4.47-5.47-7.46-2.77-7.51-2.25-14.7,2.36-21.39,1.26-1.83,2.92-3.3,4.81-4.49.19-.12.41-.17.63-.24-.1.34-.17.69-.32,1.01-1.94,4.06-2.37,8.37-2.18,12.78,0,.18.09.36.14.55.04-.2.1-.4.12-.6.64-5.04,2.12-9.82,4.26-14.41.26-.57.6-.97,1.2-1.15,1.11-.34,2.22-.69,3.32-1.05.5-.16.65-.08.58.5v-.04c-.33,2.64-.68,5.28-.93,7.93-.5,5.31-.63,10.63-.48,15.96ZM64.64,51.89c-.11.53-.27,1.05-.33,1.59-.09.89-.62,1.22-1.42,1.43-2.41.63-4.84.73-7.3.51-.56-.05-.82-.22-.84-.81-.03-.83-.13-1.66-.23-2.48-.06-.55.15-.78.7-.7.04,0,.08,0,.12,0,.36-.03.71-.06,1.07-.1-.24-.27-.47-.55-.71-.82-1.11-1.24-1.57-2.75-1.6-4.36-.11-6.11-.25-12.22-.23-18.34,0-3.07.29-6.14.49-9.21.05-.7.19-1.41.42-2.07,1.22-3.53,5.06-4.48,7.82-1.96,1.31,1.19,2.07,2.69,2.41,4.41.89,4.61,1.41,10.27,1.59,15.14-.34,3.89-.67,7.78-1.01,11.67-.17,1.95-.98,3.59-2.45,4.89-.12.11-.2.25-.31.37.16,0,.32.02.48,0,.16-.02.32-.08.49-.1,1.03-.15,1.04-.14.82.93h.02ZM70.07,51.68h0s0,0,0-.01l-.02-.02s.03,0,.04-.02c0,.02,0,.03-.02.05ZM70.7,51.37v-.02c-.17.14-.4.19-.61.28.14-.32.26-.66.45-.95,2.67-4.2,3.71-8.86,3.96-13.75.02-.35.12-.77-.48-.81-.55-.03-.83.12-.88.74-.16,1.95-.31,3.9-.59,5.83-.48,3.38-1.75,6.5-3.44,9.43-.68,1.19-2.05,1.48-3.22,1.99-.05.02-.35-.3-.33-.43.18-1.11.4-2.21.61-3.31,1.59-8.18,2.03-16.42,1.2-24.72-.23-2.28-.53-4.54-.75-6.82-.06-.61-.05-1.26.08-1.86.21-.95.79-1.24,1.67-.81.7.34,1.42.74,1.98,1.28,1.54,1.46,3.09,2.92,4.46,4.54,2.42,2.85,3.59,6.28,3.9,9.96.46,5.34-.58,10.35-3.61,14.86-1.2,1.78-2.74,3.23-4.4,4.57Z"/>
      <path class="cls-1" d="M60.31,18.02c-.1-.28-.37-.5-.56-.75-.18.24-.43.46-.53.73-.11.3-.11.65-.11.98.1,4.53.21,9.06.32,13.59h-.17v12.72c0,.58,0,1.17.09,1.74.04.23.33.56.52.57.2.01.55-.27.61-.48.16-.59.26-1.22.28-1.84.11-2.7.28-5.4.24-8.1-.1-5.98-.31-11.96-.48-17.94-.02-.41-.07-.84-.21-1.22Z"/>
      <path class="cls-1" d="M73.74,26.69c-.54-1.9-1.27-3.75-1.96-5.61-.09-.26-.45-.43-.68-.64-.02.29-.05.59-.02.88.02.2.13.39.19.59.77,2.36,1.42,4.76,1.63,7.25.06.66.15,1.32.16,1.98.01.68.49.7.94.7.51,0,.41-.4.38-.73-.02-.12-.03-.25-.04-.37.03-.01.05-.01.08-.01-.22-1.35-.31-2.74-.68-4.04Z"/>
    </g>
  </g>
</svg>