<?xml version="1.0" encoding="UTF-8"?>
<svg id="Camada_2" data-name="Camada 2" xmlns="http://www.w3.org/2000/svg" viewBox="0 0 114.96 96.59">
  <defs>
    <style>
      .cls-1 {
        fill: #fff;
        stroke-width: 0px;
      }
    </style>
  </defs>
  <g id="Camada_2-2" data-name="Camada 2">
    <g>
      <path class="cls-1" d="M29.94,56.62c0-4.67.01-9.33-.02-14,0-.45.36-1.28-.53-1.23-.71.04-.42.79-.42,1.23-.02,7.25-.02,14.5,0,21.74,0,.95-.1,1.83-.88,2.49-1.2,1.01-2.69.89-3.91-.37-1.82-1.89-3.62-3.79-5.43-5.69-.6-.63-1.17-1.3-1.8-1.9-.68-.65-.98-1.44-.99-2.35-.02-1.58-.04-3.17.01-4.75.02-.57.23-1.14.42-1.68,1.34-3.83,2.27-7.73,2.23-11.83-.03-3.59-.87-6.85-3.63-9.35-.39-.35-.16-.56.06-.82.66-.81,1.35-1.59,1.95-2.44,1.09-1.54,2.01-3.19,2.18-5.11.08-.88-.15-1.8-.29-2.69-.05-.3-.17-.71-.65-.5-.36.15-.48.39-.3.8.64,1.45.28,2.85-.28,4.23-.79,1.91-2.03,3.52-3.38,5.06-.35.4-.62.49-1.15.21-.84-.44-1.76-.73-2.66-1.04-.36-.12-.84-.33-1,.31-.15.6.34.54.68.64.36.11.72.21,1.07.33,3.45,1.23,5.43,3.72,6.11,7.27.67,3.46.24,6.89-.58,10.27-.36,1.45-.86,2.86-1.29,4.3-.73,2.46-3.72,3.54-6.03,1.46-3.62-3.26-6.21-7.25-7.83-11.86-3.97-11.36-.35-24.11,9.01-31.81C17.46,1.88,25.35-.55,34.16.11c6.83.51,12.91,3.02,18.19,7.42.03.03.07.05.09.08.19.21.37.42.56.64-.26.1-.5.24-.77.31-2.94.7-5.69,1.86-8.19,3.55-8,5.42-12.3,14.91-10.33,24.67,2.09,10.37,8.56,16.83,18.81,19.43,1.2.31,2.46.39,3.71.52.49.05.65.24.63.69-.02.33,0,.67,0,1,0,11.5.01,22.99,0,34.49,0,.57-.06,1.17-.24,1.72-.67,2.07-2.9,2.63-4.46,1.1-1.28-1.25-2.49-2.57-3.73-3.87-1.06-1.11-2.07-2.29-3.2-3.33-1-.94-1.33-2.04-1.32-3.35.03-4.12.01-8.25.01-12.37,0-5,0-10,0-15,0-.37.01-.76-.06-1.12-.03-.14-.28-.32-.43-.32-.15,0-.4.18-.43.32-.07.36-.06.74-.06,1.12,0,6.62,0,13.25,0,19.87,0,.67,0,1.33-.05,2-.09,1.11-.7,1.88-1.72,2.25-1.01.36-1.98.2-2.77-.6-1.22-1.25-2.43-2.51-3.64-3.78-1.15-1.2-2.25-2.46-3.46-3.6-.99-.93-1.38-2-1.38-3.33.03-4.66.01-9.33.01-13.99Z"/>
      <path class="cls-1" d="M57.93,75.12c0-5.54,0-11.08,0-16.62,0-.25,0-.5,0-.75.02-.95.02-.94.94-1.01,2.42-.18,4.8-.55,7.06-1.44,9.1-3.59,14.53-10.19,15.89-19.9,1.71-12.22-6.29-23.76-18.27-26.73-.04-.01-.08-.03-.12-.04-.5-.16-.99-.31-1.49-.47.36-.34.71-.7,1.09-1.01C69.5,2.01,76.88-.41,85.1.07c10.89.64,19.54,5.43,25.46,14.67,7.02,10.96,5.49,25.51-3.5,34.95-.52.54-1.04,1.08-1.59,1.59-1.41,1.28-3.3,1.39-4.78.21-.43-.35-.85-.84-1.04-1.36-1.43-3.89-2.49-7.86-2.32-12.05.05-1.36.23-2.75.59-4.06.88-3.17,3.01-5.19,6.12-6.21.35-.12.74-.15,1.08-.31.17-.08.41-.42.36-.5-.12-.2-.4-.47-.57-.44-.61.1-1.21.3-1.8.5-.43.15-.87.31-1.25.55-.5.31-.83.32-1.25-.18-1.35-1.6-2.63-3.23-3.41-5.19-.52-1.31-.78-2.64-.23-4,.18-.45.07-.79-.36-.86-.17-.03-.51.32-.61.56-.5,1.25-.4,2.53-.04,3.79.61,2.13,1.83,3.91,3.21,5.59.24.29.49.56.74.84.26.29.31.51-.03.82-2.6,2.33-3.47,5.38-3.6,8.74-.15,4.18.81,8.17,2.1,12.11.31.93.44,1.94.5,2.92.08,1.29,0,2.58.02,3.87.01.89-.3,1.61-.91,2.24-2.45,2.55-4.88,5.12-7.33,7.68-.81.84-1.75,1.23-2.93.82-1.22-.43-1.75-1.33-1.84-2.56-.02-.33,0-.67,0-1,0-7,0-13.99,0-20.99,0-.37.01-.75-.06-1.12-.03-.14-.29-.31-.44-.31-.15,0-.4.19-.42.33-.07.36-.06.74-.06,1.12,0,9.2-.03,18.41.02,27.61,0,1.49-.42,2.61-1.47,3.66-2.21,2.2-4.31,4.52-6.49,6.75-.48.49-1.09.97-1.72,1.15-1.57.44-3.02-.62-3.23-2.26-.09-.7-.11-1.41-.11-2.12,0-6.58,0-13.16,0-19.74,0-.37.04-.76-.05-1.12-.04-.16-.32-.34-.51-.37-.11-.02-.36.22-.39.37-.06.36-.04.75-.04,1.12,0,9-.03,17.99.02,26.99,0,1.61-.39,2.85-1.58,3.99-2.24,2.17-4.35,4.48-6.49,6.75-.72.76-1.55,1.11-2.58.92-1.03-.19-1.77-.8-2-1.83-.22-1.01-.37-2.05-.38-3.08-.04-5.5-.02-11-.02-16.49Z"/>
      <path class="cls-1" d="M57.67,9c-12.13-.22-23.36,9.82-23.39,23.29-.03,12.85,10.43,23.4,23.12,23.47,12.98.08,23.62-10.38,23.65-23.33.03-13.54-11.21-23.63-23.38-23.42ZM53.17,12.44c-.34,2.64-.69,5.28-.94,7.93-.5,5.31-.63,10.63-.48,15.96.13,4.5.5,8.97,1.06,13.43.11.87.25,1.73.34,2.6.01.13-.27.43-.36.41-.81-.18-1.63-.35-2.39-.67-.29-.13-.48-.63-.6-1-1.33-4.27-2.16-8.63-2.35-13.1-.08-1.91-.09-3.83-.14-5.74,0-.17-.08-.34-.13-.51-.03.16-.07.32-.08.49-.11,3.16-.31,6.31-.3,9.47,0,3.01.7,5.94,1.54,8.82.06.22.06.46.08.7-.23-.06-.46-.1-.68-.19-1.07-.44-1.83-1.16-2.42-2.2-2.15-3.79-3.94-7.7-4.62-12.04-.22-1.44-.33-2.89-.48-4.34-.02-.17-.03-.33-.04-.5-.02.17-.03.33-.05.5-.45,4.91.58,9.51,2.96,13.81.34.62.73,1.21,1.08,1.83.15.27.24.57.35.86-.27-.18-.56-.33-.81-.53-2.47-2.01-4.37-4.47-5.47-7.46-2.77-7.51-2.25-14.7,2.36-21.39,1.26-1.83,2.92-3.3,4.81-4.49.19-.12.42-.17.64-.24,0-.01,0-.02,0-.03l.02.02s-.02,0-.03.01c-.1.34-.17.69-.32,1.01-1.94,4.06-2.37,8.37-2.18,12.78,0,.18.09.36.14.55.04-.2.1-.4.12-.6.64-5.04,2.12-9.82,4.26-14.41.26-.57.6-.97,1.2-1.15,1.11-.34,2.22-.69,3.32-1.05.5-.16.65-.08.58.5ZM64.65,49.76c-.11.53-.27,1.05-.33,1.59-.09.89-.62,1.22-1.42,1.43-2.41.63-4.84.73-7.3.51-.56-.05-.82-.22-.84-.81-.03-.83-.13-1.66-.23-2.48-.06-.55.15-.78.7-.7.04,0,.08.01.12,0,.36-.03.71-.06,1.07-.1-.24-.27-.47-.55-.71-.82-1.11-1.24-1.57-2.75-1.6-4.36-.11-6.11-.25-12.22-.23-18.34,0-3.07.29-6.14.49-9.21.05-.7.19-1.41.42-2.07,1.22-3.53,5.06-4.48,7.82-1.96,1.31,1.19,2.07,2.69,2.41,4.41.89,4.61,1.41,10.27,1.59,15.14-.34,3.89-.67,7.78-1.01,11.67-.17,1.95-.98,3.59-2.45,4.89-.12.11-.2.25-.31.37.16,0,.32.02.48,0,.16-.02.32-.08.49-.1,1.03-.15,1.04-.14.82.93ZM70.71,49.22c-.17.14-.4.19-.61.28,0,.02-.01.03-.02.05l-.03-.03s.03-.01.05-.02c.14-.32.26-.66.45-.95,2.67-4.2,3.71-8.86,3.96-13.75.02-.35.12-.77-.48-.81-.55-.03-.83.12-.88.74-.16,1.95-.31,3.9-.59,5.83-.48,3.38-1.75,6.5-3.44,9.43-.68,1.19-2.05,1.48-3.22,1.99-.05.02-.35-.3-.33-.43.18-1.11.4-2.21.61-3.31,1.59-8.18,2.03-16.42,1.2-24.72-.23-2.28-.53-4.54-.75-6.82-.06-.61-.05-1.26.08-1.86.21-.95.79-1.24,1.67-.81.7.34,1.42.74,1.98,1.28,1.54,1.46,3.09,2.92,4.46,4.54,2.42,2.85,3.59,6.28,3.9,9.96.46,5.34-.58,10.35-3.61,14.86-1.2,1.78-2.74,3.23-4.4,4.57Z"/>
      <path class="cls-1" d="M46.08,14.81s0-.07.01-.11c.02.02.05.05.07.07-.04,0-.07,0-.11.01l.02.02Z"/>
      <path class="cls-1" d="M70.05,49.51s-.06.08-.09.13c0-.02,0-.06.02-.07.03-.02.07-.02.1-.03,0,0-.03-.03-.03-.03Z"/>
      <path class="cls-1" d="M59.44,30.44c-.11-4.53-.22-9.06-.32-13.59,0-.33,0-.68.11-.98.1-.27.35-.49.53-.73.19.25.46.47.56.75.14.38.19.81.21,1.22.17,5.98.38,11.96.48,17.94.04,2.7-.13,5.4-.24,8.1-.02.62-.12,1.25-.28,1.84-.06.21-.41.49-.61.48-.19-.01-.48-.34-.52-.57-.09-.57-.09-1.16-.09-1.74,0-4.24,0-8.48,0-12.72.06,0,.11,0,.17,0Z"/>
      <path class="cls-1" d="M74.35,28.61c.01.12.02.25.04.37.03.33.13.73-.38.73-.45,0-.93-.02-.94-.7-.01-.66-.1-1.32-.16-1.98-.21-2.49-.86-4.89-1.63-7.25-.06-.2-.17-.39-.19-.59-.03-.29,0-.59.02-.88.23.21.59.38.68.64.69,1.86,1.42,3.71,1.96,5.61.37,1.3.46,2.69.68,4.04-.03,0-.05,0-.08.01Z"/>
    </g>
  </g>
</svg>